<svg id="Group_24" data-name="Group 24" xmlns="http://www.w3.org/2000/svg" xmlns:xlink="http://www.w3.org/1999/xlink" width="247.732" height="41.711" viewBox="0 0 247.732 41.711">
  <defs>
    <clipPath id="clip-path">
      <rect id="Rectangle_9" data-name="Rectangle 9" width="247.732" height="41.711" fill="none"/>
    </clipPath>
  </defs>
  <g id="Group_3" data-name="Group 3" clip-path="url(#clip-path)">
    <path id="Path_248" data-name="Path 248" d="M19.057,82.364a1.958,1.958,0,0,1-.641-1.326,21.122,21.122,0,0,1-.192-2.629c.025-2.407.005-4.814,0-7.221.1-.127.055-.269.044-.408.028-.392.219-.793-.068-1.167.006-.321-.2-.483-.425-.29-.279.242-.234.292-.517.292l-7.768.012c-.693,0-1.387.019-2.08,0-.346-.007-.521.1-.517.471.006.509-.03,1.018-.024,1.526.036,2.857.083,5.715.113,8.572a4.777,4.777,0,0,1-.109,1.035c-.153.723-.469,1.237-1.354,1.23a18.6,18.6,0,0,1-3.812.058c-.583.01-.827-.338-1.029-.842A9.052,9.052,0,0,1,.469,78.3c-.06-3.454.074-6.906-.233-10.364A91.924,91.924,0,0,1,.13,56.36c.057-1.512.069-3.022.014-4.534a8.547,8.547,0,0,1,.018-.975.88.88,0,0,1,.827-.889,17.221,17.221,0,0,1,5.2.148.885.885,0,0,1,.648.831c.069.553.119,1.108.177,1.662a5.219,5.219,0,0,0-.1.684c-.022,1.546-.028,3.093-.046,4.639-.016,1.384-.01,2.767.091,4.149.036.495.242.728.754.607.857.044,1.714.037,2.573.107A10.26,10.26,0,0,0,13.2,62.5a15.7,15.7,0,0,1,3.961-.079c1.058.047,1.068.02,1.055-1-.042-3.234-.1-6.468-.135-9.7-.017-1.51.155-1.658,1.635-1.785a36.626,36.626,0,0,1,4.52-.014.493.493,0,0,1,.548.495c.033.276.1.548.146.822a.084.084,0,0,0,.019.107q.012.557.024,1.113A34.37,34.37,0,0,0,25,57.607c.1,5.863-.043,11.724-.141,17.585-.032,1.884.146,3.765.009,5.648-.074,1.015-.547,1.516-1.558,1.523-1.417.01-2.835,0-4.252,0M14.006,63.2l-1.12-.025-.183-.043-4.984.262a2.27,2.27,0,0,0-1.1-.134,1.166,1.166,0,0,1-.461-.8,26.074,26.074,0,0,1-.045-4.789c.017-1.477.146-2.959.09-4.44a8.425,8.425,0,0,0-.16-2.148c.084-.492-.238-.521-.59-.523-1.322-.006-2.645.006-3.966-.03-.52-.014-.665.209-.6.669.008,1.789.022,3.578.031,5.365.013,2.731-.025,5.462,0,8.194a11.811,11.811,0,0,1,.15,1.657,11.585,11.585,0,0,0-.018,3.472A17.929,17.929,0,0,1,1.4,73.062c-.077,2.555-.345,5.1-.247,7.664.021.563.173.71.715.692,1.186-.04,2.376-.049,3.561,0,.556.022.654-.187.661-.678.019-1.537-.128-3.067-.157-4.6-.039-2.071.3-4.121.4-6.185.057-1.223.032-1.223,1.216-1.241.256,0,.511-.02.767-.023,3.324-.045,6.649.091,9.972-.089a.513.513,0,0,1,.589.373,5.688,5.688,0,0,1,.357,2.243,24.644,24.644,0,0,0-.34,3.392c.08,1.88-.037,3.763.075,5.648.038.639.216,1.067.761,1.1a16,16,0,0,0,3.894-.074.676.676,0,0,0,.6-.785c0-1.953.053-3.905.114-5.859.085-2.738.044-5.48.025-8.22-.024-3.526-.083-7.052-.12-10.578-.014-1.4-.007-2.793-.016-4.19,0-.242.072-.534-.329-.567s-.827-.1-1.24-.149a4.521,4.521,0,0,0-2.053-.5c-.573.008-1.4-.27-1.689.636a8.3,8.3,0,0,0-.028,2.67.662.662,0,0,1,0,.092c-.028.036-.084.076-.079.107.229,1.391-.049,2.786.09,4.2.15,1.522-.033,3.1-.017,4.657a.579.579,0,0,1-.276.459,29.292,29.292,0,0,1-3.2-.059l-.181-.071-.184.015-.191.033-.7.012c-.054-.064-.1-.051-.139.016M2.153,81.972a2.683,2.683,0,0,0,2.193,0Zm22.309-.8a4.958,4.958,0,0,0,0-2.989ZM3.376,50.218a2.177,2.177,0,0,0,1.588.008,2.725,2.725,0,0,0-1.588-.008m20.826.489c-.425-.479-.978-.29-1.5-.276a3.451,3.451,0,0,0,1.5.276m.411,14.335h.109V62.275h-.109Zm-.072-10.164a4.721,4.721,0,0,0,.1,1.837c.238-.63-.111-1.229-.1-1.837M2.7,50.372l-.009-.222H1.141c.515.421,1.044-.113,1.558.222M.437,56.152A2.816,2.816,0,0,0,.522,54.58c-.12.51,0,1.039-.085,1.573M17.319,69.438c0,.016,0,.041.013.047a.172.172,0,0,0,.061.012l-.017-.081-.057.023" transform="translate(0 -45.028)" fill="#76b444"/>
    <path id="Path_249" data-name="Path 249" d="M550.719,60.189a6.3,6.3,0,0,0,2.362,1.68,47.269,47.269,0,0,1,6.21,3.535,8.887,8.887,0,0,1,2.979,3.7c.049.1.11.2.166.306a12.944,12.944,0,0,1,.487,4.046,7.949,7.949,0,0,1-3.591,6.5,10.676,10.676,0,0,1-7.209,2.034,7.124,7.124,0,0,0-.967-.1,13.741,13.741,0,0,1-6.661-1.745c-.2-.1-.363-.3-.627-.242a35.614,35.614,0,0,1-3.087-2.876,1.151,1.151,0,0,1,.171-1.6c.754-.659,1.605-1.181,2.4-1.779a7.59,7.59,0,0,1,1.969-.844.943.943,0,0,1,.961.273,9.1,9.1,0,0,0,6.675,2.205,4.889,4.889,0,0,0,2.255-.653c1.314-.741,1.206-2.5-.164-3.522.021-.1-.03-.149-.124-.166l0,0c-.073-.085-.129-.208-.222-.251-1.5-.695-2.692-1.873-4.165-2.618-1.314-.664-2.572-1.44-3.855-2.166l0,0a.121.121,0,0,0-.168-.105,5.853,5.853,0,0,0-.935-.82A7.476,7.476,0,0,1,542.65,59.2a12.215,12.215,0,0,1,2.17-7.232,2.532,2.532,0,0,1,.909-.853,14.052,14.052,0,0,1,11.838-1.493,11.449,11.449,0,0,1,4.875,2.936,3.025,3.025,0,0,1,.684,1.229c-.122.193-.134.443-.341.6-1.236.905-2.526,1.728-3.837,2.52a1.473,1.473,0,0,1-1.7,0,7.068,7.068,0,0,0-6.083-.786,2.011,2.011,0,0,0-1.4,1.247c-.5,1.221.192,2.03.954,2.819m-1.528,6.847.153.1.036-.054-.186-.054c-.015-.143-.055-.268-.234-.255-.03,0-.086.054-.082.071.038.166.181.17.313.188m-2.1-15.8c-.09.005-.2-.014-.147.142l.005-.006c-.326-.044-.476.146-.562.422h0c-.4.16-.756.367-.842.842l0,0a.664.664,0,0,0-.563.7l0-.006c-.238-.022-.3.171-.389.324a8.654,8.654,0,0,0-1.239,3.77,7.391,7.391,0,0,0,.235,3.6,5.489,5.489,0,0,0,.264.785,7.434,7.434,0,0,0,3.027,3.321c1.4.792,2.754,1.674,4.2,2.413a13.83,13.83,0,0,1,5.117,3.706,2.262,2.262,0,0,1,.7,1.906,3.558,3.558,0,0,1-.46,1.641,3.367,3.367,0,0,1-1.706,1.027l-.4.091a12.417,12.417,0,0,1-7.359-1.328,1.671,1.671,0,0,1-.688-.462c-.454-.67-.987-.634-1.621-.255-1.144.684-2.058,1.667-3.167,2.393-.166.109-.1.246-.024.361a4.567,4.567,0,0,0,1.85,1.65,6.808,6.808,0,0,1,2.48,1.384,2.812,2.812,0,0,0,1.688.914,21.8,21.8,0,0,0,7.683.15c3.427-.755,5.886-2.642,6.659-6.22a6.883,6.883,0,0,0-.759-5.63,21.575,21.575,0,0,0-1.812-2.208c-1.716-1.885-3.963-2.972-6.139-4.176-1.378-.762-2.9-1.282-3.772-2.813a3.277,3.277,0,0,1-.341-2.437,2,2,0,0,1,1.332-1.5,7.705,7.705,0,0,1,7.075.615,1.22,1.22,0,0,0,1.485-.076,27.264,27.264,0,0,1,2.316-1.542,1.18,1.18,0,0,0,.348-1.964,6.975,6.975,0,0,0-3.117-2.239,29.4,29.4,0,0,0-3.422-.909,4.771,4.771,0,0,0-2.8.063.383.383,0,0,1-.094,0c-.371-.351-.746.019-1.064.079a7.189,7.189,0,0,0-3.216,1.048.779.779,0,0,0-.78.421Zm-2.642,27.94a.241.241,0,0,0-.283-.107c-.016,0-.026.034-.038.052l.291.09a1.089,1.089,0,0,0,.772.473,1.026,1.026,0,0,0-.742-.509m9.22,2.243c-1.3-.163-2.615-.055-3.922-.192a14.052,14.052,0,0,0,3.922.192m-.866-5.778c.821.1.821.1,1.192-.262-.409.066-.831-.022-1.192.262M549.8,67.205l-.1.069c.042.046.077.108.129.133s.136.005.1-.082c-.018-.051-.087-.083-.131-.121m.573.451c.012-.039.042-.087.029-.111s-.068-.037-.1-.054c-.011.034-.04.08-.027.1s.067.044.1.064" transform="translate(-488.382 -44.221)" fill="#76b444"/>
    <path id="Path_250" data-name="Path 250" d="M785.387,57.525a1.535,1.535,0,0,1-1.369-.939l.007.012c-.061-1.228-.123-2.456-.181-3.684a2.1,2.1,0,0,1,.41-1.5,1.173,1.173,0,0,1,.925-.471c5.564-.586,11.144-.061,16.713-.252a23.054,23.054,0,0,1,4.239.114c1.241.186,1.372.265,1.436,1.528a1.242,1.242,0,0,0,.149.6,24.848,24.848,0,0,1,.047,3.2,1.159,1.159,0,0,1-1.083,1.308,19,19,0,0,1-6.86.193c-.8-.137-.8-.138-.785.69.03,2.154.1,4.309.047,6.462-.09,3.608.163,7.2.389,10.792a9.865,9.865,0,0,1-.055,3.191,6.919,6.919,0,0,0-.256,2.611c.121,1.044-.307,1.425-1.368,1.538a14.265,14.265,0,0,1-3.75.052,1.342,1.342,0,0,1-1.328-1.245c-.273-1.593-.155-3.2-.321-4.8-.454-4.348-.045-8.692.11-13.036.059-1.649.07-3.3.1-4.951.05-1.055-.154-1.284-1.135-1.227a19.367,19.367,0,0,1-1.937.007,30.392,30.392,0,0,0-4.145-.194m18.582-6.146a15,15,0,0,0-3.62.042,12.846,12.846,0,0,0-2.62-.048c-1.83.1-3.634.5-5.478.443-2.185-.069-4.375.093-6.555-.146-.58-.064-1.042.164-1.086.677a27.922,27.922,0,0,0,.06,4.142c.014.215.187.314.39.331a9.987,9.987,0,0,0,1.666.116c1.953-.168,3.907-.039,5.859-.094.467-.013.626.165.6.616-.065,1.043-.063,2.095-.044,3.132.04,2.188.039,4.377.055,6.564.031,4,.007,8,.011,12a12.855,12.855,0,0,0,.1,2.3.732.732,0,0,0,.85.7c1.179-.018,2.359-.012,3.539-.006.207,0,.365-.024.417-.261a10.8,10.8,0,0,0,.551-2.573c-.049-2.368,0-4.738-.02-7.106-.006-.906.016-1.811-.056-2.719-.176-2.2-.508-4.383-.521-6.6-.01-1.772.178-3.525.315-5.285.06-.766.461-1.187,1.2-1.01a9.4,9.4,0,0,0,1.692.211c1.628.094,3.252,0,4.878.019a.787.787,0,0,0,.9-.779c.03-1.111.047-2.225,0-3.334a1.453,1.453,0,0,0-1.481-1.432,10.824,10.824,0,0,0-1.6.1m-4.931,20.563c-.243,1.582-.042,3.165-.207,4.747h.207ZM790.5,51.314V51.5a10.079,10.079,0,0,0,2.885-.189Zm2.377,10.315-.09-.01c0,.6-.023,1.2.007,1.792.029.571-.262,1.149.084,1.713Zm-.124,10.29-.178.013a4.6,4.6,0,0,0,.178,2.23ZM804.12,51.078l-.014-.189a2.762,2.762,0,0,0-1.784.189Zm-5.414,8.4c.275-.651-.014-1.284.119-2.1-.429.821-.111,1.471-.119,2.1m-1.73-8.467c0,.023,0,.046,0,.069h2.229c0-.023,0-.046,0-.069Zm1.7,16.574c.289-.591.03-1.2,0-1.8Z" transform="translate(-708.22 -45.762)" fill="#76b444"/>
    <path id="Path_251" data-name="Path 251" d="M1003.888,83.634a1.6,1.6,0,0,1-1.5-1.422,7.069,7.069,0,0,0-.588-1.523c-.218-1.558-.238-1.576-1.775-1.566-.046,0-.093,0-.139,0-2.684-.111-5.368-.007-8.053.006-.454,0-.58.186-.658.588a21.429,21.429,0,0,1-.719,2.687,1.87,1.87,0,0,1-1.975,1.4c-1.115.007-2.23,0-3.346,0-.161-.019-.323-.042-.484-.058-.971-.092-1.293-.533-1.2-1.524a40.68,40.68,0,0,1,1.492-6.446c.761-2.88,1.888-5.642,2.787-8.472,1.109-3.5,2.481-6.9,3.559-10.4.428-1.392.9-2.77,1.314-4.169.292-1,.494-1.134,1.886-1.157,1.366-.023,2.732-.019,4.1-.018a.968.968,0,0,1,.845.52,8.134,8.134,0,0,1,.672,1.675,1.858,1.858,0,0,0,.046.271q1.776,5.544,3.556,11.086,1.534,4.773,3.073,9.545c.489,1.526,1.251,2.952,1.62,4.524a27.427,27.427,0,0,0,.7,2.768c.356,1.025-.072,1.556-1.123,1.58-1,.022-1.995.049-2.992.064-.366.005-.737-.131-1.1.049m-4.071-28.777a.7.7,0,0,0,.229.6c.069-.29.024-.487-.235-.591a2.5,2.5,0,0,0-.582-1.62,3.2,3.2,0,0,0,.589,1.614M985.524,75.646l.565-1.94,1.023-3.222-.164-.05a17.861,17.861,0,0,0-.967,3.011l-.584,2.078c-.1.107-.18.265-.052.348.087.056.16-.109.178-.224m-.071,2.138a27.516,27.516,0,0,0-1.344,4.318c-.056.232-.221.488.051.7a1.074,1.074,0,0,0,.823.274c.883.005,1.768-.017,2.648.036,1.231.074,1.616-.187,2.2-1.573.35-.832.6-1.709.867-2.573.093-.3.207-.471.56-.49,1.5-.079,3.013-.138,4.51-.3,1.389-.153,2.782-.073,4.17-.209,1.137-.111,2.2.055,2.73,1.3.023.053.111.078.169.116-.119.194-.035.323.135.425a8.045,8.045,0,0,0,.436,2.287.365.365,0,0,0,.407.3,21.171,21.171,0,0,1,4.44.285c.181.04.407.024.3-.284-.281-.826-.431-1.684-.71-2.516-.8-2.391-1.455-4.827-2.428-7.166a17.172,17.172,0,0,1-1.179-2.874,49,49,0,0,0-2.173-7.836c-.887-2.188-1.538-4.47-2.537-6.617-.092-.2-.347-.49-.345-.535.047-.88-.812-1.521-.627-2.424.039-.188-.122-.219-.274-.216a5.353,5.353,0,0,0-2.926-.117c-1.185-.149-1.742.059-1.79.806a12.865,12.865,0,0,1-1.621,4.68,2.186,2.186,0,0,0-.376,1.166c-.4.02-.362.383-.444.614-1.335,3.761-2.485,7.58-3.516,11.436a21.14,21.14,0,0,0-.8,2.946,8.145,8.145,0,0,0-.56,2.019,7.443,7.443,0,0,0-.8,2.031m17.928,5.045a17.839,17.839,0,0,0,3.866.235q0-.117.008-.235Zm-11.4-26.535.176.043A8.418,8.418,0,0,0,993.051,53Zm9.274,22.253.016-.141H998.4q0,.07,0,.141Zm.727,1.137.754,2.175a3.215,3.215,0,0,0-.754-2.175m-16.765-3.454a4.473,4.473,0,0,0-.436,1.76,4.609,4.609,0,0,0,.436-1.76" transform="translate(-888.565 -46.578)" fill="#76b444"/>
    <path id="Path_252" data-name="Path 252" d="M270.326,86.407c-.184-.025-.367-.058-.552-.075a1.151,1.151,0,0,1-1.092-1.422,46.363,46.363,0,0,1,1.544-6.644c.774-3,1.983-5.854,2.909-8.8,1-3.169,2.23-6.25,3.246-9.408q.712-2.212,1.41-4.428c.443-1.4.444-1.428,1.926-1.458,1.367-.028,2.735-.011,4.1-.012a.983.983,0,0,1,.856.505,6.417,6.417,0,0,1,.676,1.737q1.918,6.011,3.835,12.023c.746,2.347,1.442,4.71,2.227,7.044a87.4,87.4,0,0,1,2.946,9.07c.239,1.091-.1,1.544-1.224,1.61-1.318.077-2.641-.105-3.954.091a1.615,1.615,0,0,1-1.561-1.472,7.869,7.869,0,0,0-.565-1.56c-.319-1.5-.319-1.5-1.78-1.506-.093,0-.186-.008-.279-.009-2.667-.053-5.332,0-8,.052-.388.008-.492.148-.556.514a14.237,14.237,0,0,1-.875,3.074,1.468,1.468,0,0,1-1.21.991,34.314,34.314,0,0,1-4.031.081m.666-8.943a5.7,5.7,0,0,0,.395-1.4l.947-2.849-.163-.052a17.136,17.136,0,0,0-.969,2.924,6.817,6.817,0,0,0-.342,1.391.244.244,0,0,0,0,.129,9.776,9.776,0,0,0-.825,2.837,13.871,13.871,0,0,0,.836-2.828l.119-.155m14.129-19.97c-.006.217-.049.446.207.6a.518.518,0,0,0-.209-.6,12.8,12.8,0,0,0-.808-2.435,4.323,4.323,0,0,0,.81,2.433m2.935,26.964.051.033-.058-.026a4.068,4.068,0,0,0-.742-2.284,5.652,5.652,0,0,0,.749,2.278m-17.275-4.3c-.327.943-.714,1.871-.962,2.835a5.815,5.815,0,0,0-.508,2.389,1.149,1.149,0,0,0,.9.313c1.018-.081,2.032.031,3.047.048a1.565,1.565,0,0,0,1.479-.852,9.923,9.923,0,0,0,.921-2.547c.228-.812.565-1.421,1.567-1.316a6.941,6.941,0,0,0,1.182-.054c1.783-.123,3.565-.317,5.35-.356,1.556-.034,3.341-.585,4.279,1.378.007.2.05.37.289.4-.08.073-.229.1-.193.252.153.629.318,1.256.467,1.886.1.4.376.478.734.485a18.159,18.159,0,0,1,4.161.26c.233.059.414.019.314-.319-.161-.545-.258-1.111-.436-1.65-.782-2.373-1.415-4.795-2.356-7.114-.27-.667-.609-1.311-.813-2a14.616,14.616,0,0,1-.73-1.772,60,60,0,0,0-3.384-11.2,27.472,27.472,0,0,0-1.117-2.774c-.449-.851-.672-1.77-1.046-2.634a1.4,1.4,0,0,1-.073-.977c-.019-.04-.033-.11-.058-.115a24.3,24.3,0,0,0-4.3-.094.4.4,0,0,0-.4.229,1,1,0,0,0-.279.618A7.943,7.943,0,0,1,278,58.467c-.355.723-.66,1.471-.987,2.208a2.948,2.948,0,0,0-.335.518c-1.445,3.769-2.553,7.644-3.629,11.53a19.587,19.587,0,0,0-.765,2.791l-.861,2.91a7.75,7.75,0,0,0-.641,1.733m7.594-24.487a15.314,15.314,0,0,0-1.059,3.294,8.419,8.419,0,0,0,1.059-3.294m10.3,29.746q0,.088,0,.176c1.239-.076,2.476.2,3.715.042q0-.109,0-.218Zm-2.328-4.326.024-.084H283.73c0,.028,0,.056,0,.084Zm-14.03-8.163a1.025,1.025,0,0,0,.362-.975,1.6,1.6,0,0,0-.362.975" transform="translate(-242.751 -48.933)" fill="#76b444"/>
    <path id="Path_253" data-name="Path 253" d="M889.587,104.376a14.269,14.269,0,0,0,3.75-.052c1.061-.112,1.489-.494,1.368-1.538a6.919,6.919,0,0,1,.257-2.611,9.862,9.862,0,0,0,.055-3.191c-.226-3.593-.479-7.184-.389-10.792.054-2.152-.016-4.308-.047-6.462-.012-.827-.02-.826.785-.69a18.992,18.992,0,0,0,6.859-.193,1.159,1.159,0,0,0,1.083-1.308,24.858,24.858,0,0,0-.047-3.2c.556.042.73.354.721.891-.025,1.371,0,2.744-.008,4.116,0,.733-.267.989-1.019.991-2.232.006-4.465.026-6.7-.007-.625-.009-.825.145-.823.8.029,7.837.026,15.673.031,23.51,0,.988-.152,1.2-1.144,1.235a10.639,10.639,0,0,1-2.64-.075,1.514,1.514,0,0,0-.486-.012c-1.475.167-1.609.051-1.609-1.42" transform="translate(-803.766 -67.17)" fill="#c0e2e8"/>
    <path id="Path_254" data-name="Path 254" d="M575.161,271.627c.264-.063.429.14.627.242a13.74,13.74,0,0,0,6.661,1.745,7.135,7.135,0,0,1,.967.1,10.676,10.676,0,0,0,7.209-2.034,7.949,7.949,0,0,0,3.591-6.5,12.949,12.949,0,0,0-.487-4.046,3.866,3.866,0,0,1,1.333,2.515c.519,2.636.446,5.2-1.195,7.525a9.217,9.217,0,0,1-6,3.665,15.261,15.261,0,0,1-9.287-1.009,10.019,10.019,0,0,1-3.417-2.211" transform="translate(-519.674 -235.949)" fill="#c0e2e8"/>
    <path id="Path_255" data-name="Path 255" d="M34.208,252.518c.01.139.051.281-.044.408-3.234,0-6.468.02-9.7-.005-.62,0-.832.139-.826.8.036,3.606.018,7.212.022,10.818a1.875,1.875,0,0,1-.168,1.016l-.273.1V265.6a40.891,40.891,0,0,0-4.491-.095c-.18-.007-.376-.04-.517.126a.074.074,0,0,0,.024.071c-.573-.2-.583-.684-.595-1.169,0-.092,0-.183.007-.275a18.585,18.585,0,0,0,3.812-.058c.885.007,1.2-.507,1.354-1.23a4.776,4.776,0,0,0,.109-1.035c-.031-2.858-.078-5.715-.113-8.572-.006-.509.03-1.018.024-1.526,0-.371.171-.478.516-.471.693.014,1.387,0,2.08,0l7.768-.012c.284,0,.238-.05.517-.292.223-.193.431-.031.425.29,0,.058,0,.116,0,.173a.653.653,0,0,0-.016.823l.086.17" transform="translate(-15.938 -226.765)" fill="#c0e2e8"/>
    <path id="Path_256" data-name="Path 256" d="M999.906,341.532c1.115,0,2.231.011,3.346,0a1.87,1.87,0,0,0,1.975-1.4,21.45,21.45,0,0,0,.719-2.687c.078-.4.2-.586.658-.588,2.684-.013,5.368-.117,8.053-.006.046,0,.093,0,.139,0,1.537-.011,1.557.007,1.775,1.566-2.907,0-5.813.024-8.72,0a.8.8,0,0,0-.932.681c-.287,1.05-.636,2.084-.931,3.132a.84.84,0,0,1-.962.686c-1.348-.026-2.7-.063-4.045.014-1.048.06-1.411-.471-1.077-1.405" transform="translate(-903.334 -304.312)" fill="#c0e2e8"/>
    <path id="Path_257" data-name="Path 257" d="M285.526,344.1a34.326,34.326,0,0,0,4.031-.081,1.468,1.468,0,0,0,1.21-.991,14.234,14.234,0,0,0,.875-3.074c.065-.367.168-.507.556-.514,2.666-.051,5.332-.105,8-.052.093,0,.186.009.279.009,1.462.008,1.462.008,1.78,1.506-1.629,0-3.262-.063-4.886.023-1.37.072-2.738.109-4.107.091-.418-.006-.506.24-.6.533-.334,1.085-.682,2.167-.987,3.26a.857.857,0,0,1-.964.7c-1.3-.013-2.607,0-3.91,0-1.228,0-1.4-.189-1.279-1.407" transform="translate(-257.952 -306.628)" fill="#c0e2e8"/>
    <path id="Path_258" data-name="Path 258" d="M197.53,106.825c1.417,0,2.835.01,4.252,0,1.011-.008,1.484-.509,1.558-1.523.137-1.884-.04-3.764-.009-5.648.1-5.861.236-11.722.141-17.585a34.369,34.369,0,0,1-.028-5.154c.463-.038.634.138.633.636q-.013,14.947.015,29.894c0,.673-.292.929-.914.929-1.4,0-2.794-.012-4.191.009-.524.008-.857-.274-.863-.714a.851.851,0,0,0-.594-.845" transform="translate(-178.474 -69.489)" fill="#c0e2e8"/>
    <path id="Path_259" data-name="Path 259" d="M445.408,107.057c1.313-.2,2.636-.014,3.954-.091,1.122-.066,1.463-.518,1.224-1.61a87.407,87.407,0,0,0-2.946-9.07c-.785-2.334-1.481-4.7-2.227-7.044q-1.911-6.014-3.835-12.023c.412-.11.545.189.643.475.408,1.183.81,2.369,1.192,3.561.963,3.007,1.913,6.019,2.871,9.029q1.836,5.772,3.677,11.543c.565,1.767,1.142,3.531,1.713,5.3.324,1,.077,1.437-.968,1.478-1.395.055-2.795.045-4.19,0-.786-.023-.976-.347-1.108-1.548" transform="translate(-398.978 -69.748)" fill="#c0e2e8"/>
    <path id="Path_260" data-name="Path 260" d="M1159.989,104.134c.358-.18.73-.044,1.1-.05,1-.015,1.995-.041,2.992-.064,1.052-.024,1.479-.555,1.124-1.58a27.4,27.4,0,0,1-.7-2.768c-.369-1.572-1.131-3-1.62-4.524q-1.531-4.774-3.073-9.545-1.782-5.542-3.556-11.086a1.849,1.849,0,0,1-.045-.271c.429-.052.567.251.67.57q1.755,5.43,3.5,10.864,1.192,3.709,2.375,7.42c1.2,3.757,2.41,7.511,3.592,11.273.259.823-.14,1.293-1.006,1.3-1.164,0-2.327,0-3.49,0-1.484,0-1.536-.043-1.861-1.538" transform="translate(-1044.665 -67.078)" fill="#c0e2e8"/>
    <path id="Path_261" data-name="Path 261" d="M649.092,100.472l-.007-.012a1.2,1.2,0,0,1-.65,1.132c-1.127.73-2.216,1.519-3.337,2.26a1.171,1.171,0,0,1-1.414-.025,7.2,7.2,0,0,0-6.1-.979,2.5,2.5,0,0,0-1.958,2.757c-.763-.789-1.459-1.6-.954-2.82a2.012,2.012,0,0,1,1.4-1.247,7.068,7.068,0,0,1,6.083.787,1.472,1.472,0,0,0,1.7,0c1.311-.791,2.6-1.614,3.837-2.519.207-.152.219-.4.342-.6l1.06,1.265" transform="translate(-573.286 -89.636)" fill="#c0e2e8"/>
    <path id="Path_262" data-name="Path 262" d="M1538.885,153.616a47.054,47.054,0,0,1,.081,4.724c.007.925-.007,1.85-.011,2.775a27.9,27.9,0,0,1-1.38,4.556,1.149,1.149,0,0,1-.413.623c-.429-1.073-.854-2.148-1.291-3.219a.785.785,0,0,1,.031-.669,22.588,22.588,0,0,0,2.058-11.235.656.656,0,0,1,.022-.137,5.005,5.005,0,0,1,.711,2.1c.036.178.017.367.193.484" transform="translate(-1387.646 -136.462)" fill="#b9e1f1"/>
    <path id="Path_263" data-name="Path 263" d="M799.877,121.594a30.375,30.375,0,0,1,4.145.194c.647.027,1.291.03,1.937-.007.981-.057,1.185.172,1.135,1.227a4.292,4.292,0,0,1-1.511.123c-1.389,0-2.778,0-4.166,0s-1.56-.157-1.541-1.54" transform="translate(-722.709 -109.831)" fill="#c0e2e8"/>
    <path id="Path_264" data-name="Path 264" d="M71.937,88.6c-.512.122-.718-.112-.754-.607-.1-1.382-.107-2.765-.091-4.149.018-1.546.024-3.093.046-4.639a5.217,5.217,0,0,1,.1-.684c.522.073.554.442.583.871.211,3.067.075,6.138.118,9.207" transform="translate(-64.227 -70.948)" fill="#c0e2e8"/>
    <path id="Path_265" data-name="Path 265" d="M604.384,224.743c1.283.726,2.541,1.5,3.855,2.166,1.474.745,2.666,1.923,4.166,2.618.093.043.149.166.222.251-.533.042-.9-.332-1.316-.554a38.088,38.088,0,0,1-6.262-3.649c-.279-.225-.634-.4-.665-.832" transform="translate(-546.077 -203.061)" fill="#c0e2e8"/>
    <path id="Path_266" data-name="Path 266" d="M689.789,276.912c.093.016.144.064.123.165l-.123-.165" transform="translate(-623.243 -250.198)" fill="#c0e2e8"/>
    <path id="Path_267" data-name="Path 267" d="M602.657,223.64a.121.121,0,0,1,.168.105l-.168-.105" transform="translate(-544.517 -202.059)" fill="#c0e2e8"/>
    <path id="Path_268" data-name="Path 268" d="M258.29,64.416a.084.084,0,0,1-.019-.107.7.7,0,0,1,.053.074s-.022.022-.034.034" transform="translate(-233.345 -58.105)" fill="#c0e2e8"/>
    <path id="Path_269" data-name="Path 269" d="M1431.584,156.1c-.552.153-.859-.152-.944-.766-.049-.357-.259-.467-.614-.45a17.219,17.219,0,0,1-1.824,0c-.421-.025-.642.1-.739.525-.056.245-.036.627-.373.668a4.688,4.688,0,0,1-1.345-.022c-.279-.048-.1-.331-.051-.5.562-1.816,1.134-3.628,1.7-5.442.228-.729.471-1.454.674-2.191a.532.532,0,0,1,.623-.458c1.5.05,1.129-.252,1.586,1.145.713,2.179,1.379,4.373,2.07,6.558.3.933.3.931-.764.931m-2.5-5.751c-.205.623-.365,1.1-.521,1.582-.465,1.432-.443,1.458,1.068,1.293.039,0,.078,0,.117-.006.147-.016.207-.094.162-.239-.261-.833-.523-1.665-.826-2.63" transform="translate(-1288.061 -133.242)" fill="#76b444"/>
    <path id="Path_270" data-name="Path 270" d="M28.547,402.634a2.609,2.609,0,0,1-1.346.113,29.18,29.18,0,0,1-3.638-.066.074.074,0,0,1-.024-.071c1.67.042,3.34.092,5.008-.031Z" transform="translate(-21.268 -363.741)" fill="#add08e"/>
    <path id="Path_271" data-name="Path 271" d="M14.329,61.258a8.425,8.425,0,0,1,.16,2.148c.057,1.482-.072,2.963-.09,4.44a26.082,26.082,0,0,0,.045,4.789,1.167,1.167,0,0,0,.461.8c.124.788.682.444,1.114.426a8.99,8.99,0,0,0,1.037.06c1.984-.106,3.97.059,5.956-.083a30.048,30.048,0,0,1,3.446.038c.392.017.426-.164.428-.447a.579.579,0,0,0,.276-.459c-.016-1.556.167-3.136.017-4.657-.139-1.414.139-2.808-.09-4.2,0-.03.051-.071.079-.106.273.228.531.815.844.033a.2.2,0,0,0,.062-.016c.01-.006.01-.029.015-.044l-.069.068c-.309.106-.519-.421-.856-.134a8.3,8.3,0,0,1,.028-2.67,23.346,23.346,0,0,1,3.742-.14c.413.051.825.115,1.24.149s.328.325.329.567c.009,1.4,0,2.793.016,4.19.037,3.526.1,7.052.12,10.578.019,2.74.06,5.482-.025,8.22-.061,1.953-.114,3.905-.114,5.859a.676.676,0,0,1-.6.785A16,16,0,0,1,28,91.528c-.545-.029-.723-.457-.761-1.1-.113-1.885,0-3.768-.075-5.648a24.644,24.644,0,0,1,.34-3.392,5.69,5.69,0,0,0-.357-2.243.513.513,0,0,0-.589-.373c-3.322.18-6.648.044-9.972.089-.256,0-.511.019-.767.023-1.183.018-1.159.018-1.216,1.241-.1,2.064-.438,4.114-.4,6.185.029,1.533.177,3.063.157,4.6-.006.491-.1.7-.661.679-1.186-.047-2.375-.038-3.561,0-.541.018-.693-.128-.715-.692-.1-2.563.17-5.11.247-7.664a17.92,17.92,0,0,0-.347-3.175,11.585,11.585,0,0,1,.018-3.472,11.825,11.825,0,0,0-.15-1.657c-.027-2.732.011-5.463,0-8.194-.009-1.787-.023-3.577-.031-5.365a3.788,3.788,0,0,1,.872-.2c1.43.009,2.86.053,4.289.085m8.936,16.663c.046.217-.073.567.339.522.286-.031.708-.093.715-.4.008-.409-.478-.434-.778-.527-.324-.1-.26.208-.276.405m6.586,4.653a2.772,2.772,0,0,0-.923.753c-.092.1-.308.224-.1.38.16.12.312-.024.4-.152.183-.259.341-.536.618-.981M9.478,66.63c.49.06.811.2,1.1-.067a.278.278,0,0,0-.041-.25c-.346-.137-.634,0-1.057.316m4.067-4.963a.933.933,0,0,0-1.1.137c.494.011.8.066,1.1-.137" transform="translate(-8.284 -55.205)" fill="#d3d985"/>
    <path id="Path_272" data-name="Path 272" d="M90.885,187.708c0,.283-.036.464-.428.446a30.09,30.09,0,0,0-3.446-.038c-1.986.142-3.972-.022-5.956.083a9.089,9.089,0,0,1-1.037-.06L80,187.847l4.984-.262.184.043,1.12.025.139-.016.7-.012.191-.033.184-.015.181.071a29.3,29.3,0,0,0,3.2.059" transform="translate(-72.282 -169.482)" fill="#fff"/>
    <path id="Path_273" data-name="Path 273" d="M14.209,57.564c-1.43-.032-2.859-.077-4.289-.085a3.8,3.8,0,0,0-.872.2c-.06-.46.084-.683.6-.669,1.321.035,2.644.024,3.966.03.353,0,.674.031.59.523" transform="translate(-8.163 -51.511)" fill="#eaf1df"/>
    <path id="Path_274" data-name="Path 274" d="M199.749,56.212a23.345,23.345,0,0,0-3.742.14c.29-.906,1.116-.628,1.689-.636a4.522,4.522,0,0,1,2.053.5" transform="translate(-177.098 -50.31)" fill="#fff"/>
    <path id="Path_275" data-name="Path 275" d="M22.31,382.941H24.5a2.683,2.683,0,0,1-2.193,0" transform="translate(-20.158 -345.998)" fill="#d3d985"/>
    <path id="Path_276" data-name="Path 276" d="M253.554,346.629V343.64a4.958,4.958,0,0,1,0,2.989" transform="translate(-229.093 -310.488)" fill="#53b164"/>
    <path id="Path_277" data-name="Path 277" d="M69.74,188.825l.019.292c-.433.018-.99.362-1.114-.426a2.271,2.271,0,0,1,1.1.134" transform="translate(-62.022 -170.459)" fill="#c0e2e8"/>
    <path id="Path_278" data-name="Path 278" d="M34.99,52.723a2.725,2.725,0,0,1,1.588.008,2.177,2.177,0,0,1-1.588-.008" transform="translate(-31.614 -47.533)" fill="#53b164"/>
    <path id="Path_279" data-name="Path 279" d="M236.8,55.821a3.45,3.45,0,0,1-1.5-.276c.524-.014,1.077-.2,1.5.276" transform="translate(-212.602 -50.142)" fill="#eaf1df"/>
    <path id="Path_280" data-name="Path 280" d="M255.126,181.541v-2.765h.109v2.766h-.109" transform="translate(-230.513 -161.527)" fill="#53b164"/>
    <path id="Path_281" data-name="Path 281" d="M253.99,102.1c-.012.608.337,1.207.1,1.837a4.721,4.721,0,0,1-.1-1.837" transform="translate(-229.449 -92.247)" fill="#53b164"/>
    <path id="Path_282" data-name="Path 282" d="M13.386,53.314c-.514-.335-1.043.2-1.558-.222h1.549q0,.111.009.222" transform="translate(-10.687 -47.97)" fill="#53b164"/>
    <path id="Path_283" data-name="Path 283" d="M195.712,89.493c.337-.287.547.24.856.134l-.008-.008c-.312.782-.571.195-.844-.033a.7.7,0,0,0,0-.092" transform="translate(-176.831 -80.781)" fill="#4db27b"/>
    <path id="Path_284" data-name="Path 284" d="M4.531,100.576c.085-.533-.035-1.062.085-1.573a2.815,2.815,0,0,1-.085,1.573" transform="translate(-4.094 -89.452)" fill="#53b164"/>
    <path id="Path_285" data-name="Path 285" d="M188.569,256.014l-.086-.17q.008-.411.016-.823c0-.058,0-.115,0-.173.287.373.1.775.068,1.167" transform="translate(-170.299 -230.261)" fill="#d7e4b6"/>
    <path id="Path_286" data-name="Path 286" d="M179.524,252.809l.057-.023.017.081a.171.171,0,0,1-.061-.012c-.01-.006-.009-.031-.013-.047" transform="translate(-162.205 -228.399)" fill="#c0e2e8"/>
    <path id="Path_287" data-name="Path 287" d="M157.97,187.65l-.18-.071.18.071" transform="translate(-142.568 -169.483)" fill="#a8c764"/>
    <path id="Path_288" data-name="Path 288" d="M154.089,187.731l-.191.033.191-.033" transform="translate(-139.051 -169.62)" fill="#a8c764"/>
    <path id="Path_289" data-name="Path 289" d="M145.313,187.807l-.139.016c.039-.066.084-.08.139-.016" transform="translate(-131.169 -169.651)" fill="#a8c764"/>
    <path id="Path_290" data-name="Path 290" d="M131.845,187.692l-.183-.043.183.043" transform="translate(-118.96 -169.546)" fill="#a8c764"/>
    <path id="Path_291" data-name="Path 291" d="M556.1,55.541a7.19,7.19,0,0,1,3.216-1.048c.318-.061.693-.431,1.064-.079-.033.4.232.572.555.662a.189.189,0,0,0,.222-.2c-.083-.345-.366-.439-.683-.461a4.77,4.77,0,0,1,2.8-.063,29.44,29.44,0,0,1,3.422.909,6.976,6.976,0,0,1,3.117,2.239,1.18,1.18,0,0,1-.348,1.964A27.272,27.272,0,0,0,567.153,61a1.22,1.22,0,0,1-1.485.075,7.7,7.7,0,0,0-7.075-.614,2,2,0,0,0-1.332,1.5A3.277,3.277,0,0,0,557.6,64.4c.874,1.531,2.394,2.05,3.772,2.813,2.176,1.2,4.423,2.291,6.139,4.176a21.566,21.566,0,0,1,1.812,2.208,6.883,6.883,0,0,1,.759,5.63c-.773,3.577-3.232,5.464-6.659,6.22a21.8,21.8,0,0,1-7.683-.15,2.812,2.812,0,0,1-1.688-.914A6.807,6.807,0,0,0,551.573,83a4.567,4.567,0,0,1-1.85-1.65c-.081-.115-.142-.252.024-.361,1.109-.727,2.023-1.709,3.167-2.393.634-.379,1.167-.415,1.621.255a1.671,1.671,0,0,0,.688.462,12.422,12.422,0,0,0,7.358,1.329c-.281.274-.483.692-1,.508a.133.133,0,0,0-.161.163.313.313,0,0,0,.186.175,1.012,1.012,0,0,0,1.377-.938,3.366,3.366,0,0,0,1.706-1.027,3.559,3.559,0,0,0,.46-1.641,2.261,2.261,0,0,0-.7-1.906,13.826,13.826,0,0,0-5.117-3.706c-1.447-.739-2.8-1.621-4.2-2.413a7.433,7.433,0,0,1-3.027-3.321,5.492,5.492,0,0,1-.264-.785,13.941,13.941,0,0,1,.279-5.188,24.759,24.759,0,0,1,1.115-2.507l0,.006a1.132,1.132,0,0,0,.563-.7l0,0a1.711,1.711,0,0,0,.842-.842h0c.583.387.446-.185.562-.422l-.005.006c.086-.01.147-.045.147-.143l0,0a1.135,1.135,0,0,0,.78-.421m-.631,28.512c-.093,0-.185,0-.278,0-.159,0-.275.073-.266.244a.306.306,0,0,0,.106.229c.157.076.246-.068.343-.161a.308.308,0,0,0,.089-.316l.225-.085-.046-.086Zm11.663-2.539c.426-.089.421-.505.574-.786a.241.241,0,0,0-.232-.377.838.838,0,0,0-.617.669.418.418,0,0,0,.275.494M557.7,68.9a.6.6,0,0,0-.511-.482c-.154-.018-.4,0-.336.211a.8.8,0,0,0,.582.544c.157.032.239-.107.266-.273M561,84.892c.013.154.145.167.245.2a.539.539,0,0,0,.676-.193c.057-.077.1-.167.006-.239-.216-.167-.388.033-.578.083-.122.032-.292-.038-.349.147m1.425-14.075a.242.242,0,0,0-.178.306c.041.18.114.358.353.345.123-.006.248-.05.208-.2a.541.541,0,0,0-.384-.456" transform="translate(-496.616 -48.942)" fill="#d3d985"/>
    <path id="Path_292" data-name="Path 292" d="M570.594,94.43a24.763,24.763,0,0,0-1.115,2.507,13.941,13.941,0,0,0-.279,5.188,7.39,7.39,0,0,1-.235-3.6,8.656,8.656,0,0,1,1.239-3.77c.09-.153.151-.346.389-.325" transform="translate(-513.981 -85.319)" fill="#eaf1df"/>
    <path id="Path_293" data-name="Path 293" d="M640.034,383.79a14.054,14.054,0,0,1-3.922-.192c1.307.137,2.623.029,3.922.192" transform="translate(-574.745 -346.591)" fill="#a8c764"/>
    <path id="Path_294" data-name="Path 294" d="M673.22,327.607a1.011,1.011,0,0,1-1.377.938.313.313,0,0,1-.186-.175.133.133,0,0,1,.161-.163c.519.183.721-.234,1-.508l.4-.092" transform="translate(-606.856 -296.002)" fill="#4db27b"/>
    <path id="Path_295" data-name="Path 295" d="M661.052,56.679c.318.021.6.115.683.461a.189.189,0,0,1-.222.2c-.324-.09-.588-.259-.556-.662a.4.4,0,0,0,.094,0" transform="translate(-597.191 -51.211)" fill="#4db27b"/>
    <path id="Path_296" data-name="Path 296" d="M667.794,323.248c.361-.284.783-.2,1.192-.262-.371.366-.371.366-1.192.262" transform="translate(-603.37 -291.827)" fill="#53b164"/>
    <path id="Path_297" data-name="Path 297" d="M593.427,78.514a1.71,1.71,0,0,1-.842.842c.086-.476.441-.682.842-.842" transform="translate(-535.417 -70.94)" fill="#eaf1df"/>
    <path id="Path_298" data-name="Path 298" d="M601.859,74.086c-.115.236.021.808-.562.422.086-.276.236-.466.562-.422" transform="translate(-543.288 -66.933)" fill="#eaf1df"/>
    <path id="Path_299" data-name="Path 299" d="M580.926,362.339a1.027,1.027,0,0,1,.742.509,1.089,1.089,0,0,1-.772-.473Z" transform="translate(-524.855 -327.383)" fill="#d3d985"/>
    <path id="Path_300" data-name="Path 300" d="M587.353,87.2a1.131,1.131,0,0,1-.563.7.664.664,0,0,1,.563-.7" transform="translate(-530.181 -78.787)" fill="#eaf1df"/>
    <path id="Path_301" data-name="Path 301" d="M609.319,68.4a1.135,1.135,0,0,1-.78.421.779.779,0,0,1,.78-.421" transform="translate(-549.831 -61.8)" fill="#eaf1df"/>
    <path id="Path_302" data-name="Path 302" d="M627.4,234.058c-.132-.018-.275-.022-.313-.188,0-.018.052-.069.082-.071.179-.013.219.112.234.255Z" transform="translate(-566.586 -211.243)" fill="#53b164"/>
    <path id="Path_303" data-name="Path 303" d="M635.69,238.247c.044.038.113.07.131.121.032.087-.046.109-.1.082s-.087-.087-.129-.133l.1-.07" transform="translate(-574.271 -215.263)" fill="#53b164"/>
    <path id="Path_304" data-name="Path 304" d="M641.585,241.38c-.036-.021-.084-.034-.1-.064s.017-.066.028-.1c.037.017.089.025.1.054s-.017.072-.029.111" transform="translate(-579.593 -217.944)" fill="#53b164"/>
    <path id="Path_305" data-name="Path 305" d="M578.166,361.275l-.291-.09c.012-.018.022-.048.038-.052a.242.242,0,0,1,.283.107l-.029.036" transform="translate(-522.126 -326.283)" fill="#d3d985"/>
    <path id="Path_306" data-name="Path 306" d="M630.332,236.45l.186.054-.036.054-.153-.1Z" transform="translate(-569.519 -213.639)" fill="#53b164"/>
    <path id="Path_307" data-name="Path 307" d="M607.065,72.727c0,.1-.061.133-.147.142-.057-.157.057-.137.147-.142" transform="translate(-548.353 -65.711)" fill="#eaf1df"/>
    <path id="Path_308" data-name="Path 308" d="M810.66,57.18a10.827,10.827,0,0,1,1.6-.1,1.453,1.453,0,0,1,1.481,1.432c.048,1.11.031,2.224,0,3.334a.787.787,0,0,1-.9.779c-1.625-.021-3.249.074-4.878-.019a9.4,9.4,0,0,1-1.692-.211c-.736-.177-1.138.245-1.2,1.01-.137,1.76-.325,3.513-.315,5.285.012,2.214.345,4.4.52,6.6.073.908.05,1.813.056,2.719.016,2.369-.028,4.738.02,7.106a10.8,10.8,0,0,1-.551,2.573c-.052.237-.209.262-.417.261-1.18-.005-2.359-.011-3.539.006a.732.732,0,0,1-.85-.7,12.854,12.854,0,0,1-.1-2.3c0-4,.019-8-.011-12-.017-2.188-.016-4.376-.055-6.564-.019-1.038-.021-2.09.044-3.132.028-.451-.131-.629-.6-.616-1.952.055-3.906-.074-5.859.094a9.978,9.978,0,0,1-1.666-.116c-.2-.017-.377-.116-.39-.331a27.912,27.912,0,0,1-.06-4.142c.044-.512.506-.741,1.086-.677,2.18.239,4.37.077,6.555.146,1.844.058,3.648-.343,5.478-.443a12.846,12.846,0,0,1,2.62.048,7.247,7.247,0,0,0,2.241.089,2.542,2.542,0,0,0,1.379-.131m-9.994,1.413c-.629.458-1.026-.175-1.526-.036.87.91.883.911,1.526.036m1.413,20.422c-.249.2-.512.392-.739.617-.1.1-.251.267-.084.419.138.126.306.05.447-.045.341-.231.247-.663.376-.991" transform="translate(-714.91 -51.563)" fill="#d3d985"/>
    <path id="Path_309" data-name="Path 309" d="M939.457,271.369v4.747h-.207c.165-1.582-.036-3.165.207-4.747" transform="translate(-848.638 -245.189)" fill="#53b164"/>
    <path id="Path_310" data-name="Path 310" d="M958.6,57.325a2.544,2.544,0,0,1-1.379.131,7.25,7.25,0,0,1-2.241-.089,15.006,15.006,0,0,1,3.62-.042" transform="translate(-862.85 -51.708)" fill="#d7e4b6"/>
    <path id="Path_311" data-name="Path 311" d="M852.894,57.551h2.886a10.08,10.08,0,0,1-2.885.189q0-.095,0-.189" transform="translate(-770.613 -51.999)" fill="#add08e"/>
    <path id="Path_312" data-name="Path 312" d="M875.933,164.376v3.495c-.345-.564-.055-1.142-.084-1.713-.03-.6-.007-1.194-.007-1.791Z" transform="translate(-791.275 -148.509)" fill="#53b164"/>
    <path id="Path_313" data-name="Path 313" d="M874.043,271.135v2.243a4.6,4.6,0,0,1-.178-2.23l.178-.013" transform="translate(-789.509 -244.978)" fill="#add08e"/>
    <path id="Path_314" data-name="Path 314" d="M977.229,52.743h-1.8a2.762,2.762,0,0,1,1.784-.189c0,.063.01.126.014.189" transform="translate(-881.328 -47.428)" fill="#53b164"/>
    <path id="Path_315" data-name="Path 315" d="M936.964,122.446c.008-.631-.309-1.282.12-2.1-.133.819.155,1.451-.12,2.1" transform="translate(-846.477 -108.734)" fill="#53b164"/>
    <path id="Path_316" data-name="Path 316" d="M920.025,54.373h2.229c0,.023,0,.046,0,.069h-2.229c0-.023,0-.046,0-.069" transform="translate(-831.268 -49.127)" fill="#53b164"/>
    <path id="Path_317" data-name="Path 317" d="M937.659,209.36v-1.8c.03.6.289,1.2,0,1.8" transform="translate(-847.2 -187.541)" fill="#53b164"/>
    <path id="Path_318" data-name="Path 318" d="M998.228,63.318a2.185,2.185,0,0,1,.376-1.166,12.868,12.868,0,0,0,1.621-4.68c.048-.747.6-.955,1.79-.806a12.419,12.419,0,0,0,2.927.117c.152,0,.312.027.274.216-.184.9.674,1.544.627,2.424,0,.046.252.337.345.535,1,2.147,1.65,4.429,2.537,6.617a48.984,48.984,0,0,1,2.173,7.836,17.17,17.17,0,0,0,1.179,2.874c.973,2.339,1.625,4.776,2.428,7.166.279.832.429,1.69.71,2.516.1.308-.121.324-.3.284a21.17,21.17,0,0,0-4.44-.284.365.365,0,0,1-.407-.3,8.016,8.016,0,0,1-.435-2.286,5.936,5.936,0,0,1,2.122-.513.353.353,0,0,0,.393-.385c0-.224-.2-.246-.378-.315-.986-.371-1.6.275-2.272.787-.058-.038-.146-.063-.168-.116-.528-1.24-1.593-1.407-2.73-1.3-1.388.136-2.781.057-4.17.209-1.5.164-3.005.223-4.51.3-.354.019-.467.191-.56.49-.269.864-.517,1.741-.867,2.573-.583,1.385-.968,1.646-2.2,1.573-.88-.053-1.765-.031-2.648-.036a1.075,1.075,0,0,1-.823-.274,1.592,1.592,0,0,1,.139-.734c.445-1.43.865-2.867,1.294-4.3a6.119,6.119,0,0,0,.659-2.016,8.142,8.142,0,0,1,.559-2.018,14.5,14.5,0,0,0,.985-2.944c.237-.773.47-1.546.712-2.317q1.529-4.868,3.063-9.734m4.634,2.625a17.127,17.127,0,0,0-.833,2.593q-1.279,4.192-2.652,8.356c-.211.638.019.81.557.773,1.994-.135,3.98.11,5.97.088.745-.008.819-.088.575-.821-.365-1.1-.789-2.177-1.147-3.278-.594-1.826-1.117-3.676-1.748-5.489a20.8,20.8,0,0,0-.721-2.223m-8.471,12.027c-.189,1.108-.049,1.3.773,1.152.163-.028.338-.059.347-.262.007-.163-.144-.225-.273-.267-.346-.112-.7-.208-.847-.623M999.7,63.527v-.021c-.138,0-.276,0-.413,0-.185.006-.416,0-.4.254.01.226.247.265.422.26a2.742,2.742,0,0,1,.808-.017.269.269,0,0,0,.31-.29c0-.145-.12-.181-.24-.185-.16-.006-.321,0-.482,0" transform="translate(-895.221 -51.158)" fill="#d3d985"/>
    <path id="Path_319" data-name="Path 319" d="M1030.642,126.039q-1.532,4.867-3.063,9.734c-.242.771-.475,1.545-.712,2.317h-.184c1.031-3.855,2.181-7.674,3.516-11.436.082-.231.044-.595.444-.614" transform="translate(-927.635 -113.88)" fill="#eaf1df"/>
    <path id="Path_320" data-name="Path 320" d="M1183.97,331.6c.669-.512,1.286-1.158,2.272-.787.182.069.38.091.378.315a.353.353,0,0,1-.392.385,5.938,5.938,0,0,0-2.122.513c-.171-.1-.255-.232-.136-.425" transform="translate(-1069.698 -298.798)" fill="#4db27b"/>
    <path id="Path_321" data-name="Path 321" d="M990.911,323.3c-.429,1.435-.849,2.872-1.294,4.3a1.593,1.593,0,0,0-.139.735c-.272-.215-.107-.471-.051-.7a27.5,27.5,0,0,1,1.344-4.318l.14-.015" transform="translate(-893.882 -292.11)" fill="#eaf1df"/>
    <path id="Path_322" data-name="Path 322" d="M1190.138,375.754h3.873q0,.118-.007.235a17.85,17.85,0,0,1-3.866-.235" transform="translate(-1075.322 -339.504)" fill="#d3d985"/>
    <path id="Path_323" data-name="Path 323" d="M1071.962,69.856l1.071-3.293a8.419,8.419,0,0,1-.895,3.337l-.176-.044" transform="translate(-968.547 -60.141)" fill="#eaf1df"/>
    <path id="Path_324" data-name="Path 324" d="M1009.781,250.276a17.839,17.839,0,0,1,.967-3.011l.164.05-1.023,3.222-.108-.262" transform="translate(-912.364 -223.411)" fill="#eaf1df"/>
    <path id="Path_325" data-name="Path 325" d="M1109.905,55.838a12.418,12.418,0,0,1-2.926-.117,5.353,5.353,0,0,1,2.926.117" transform="translate(-1000.185 -50.214)" fill="#d7e4b6"/>
    <path id="Path_326" data-name="Path 326" d="M1141.371,330.046h-2.853q0-.071,0-.141h2.869l-.016.141" transform="translate(-1028.682 -298.078)" fill="#a8c764"/>
    <path id="Path_327" data-name="Path 327" d="M1019.184,250.944l.184,0a14.5,14.5,0,0,1-.985,2.944,21.133,21.133,0,0,1,.8-2.946" transform="translate(-920.137 -226.735)" fill="#d7e4b6"/>
    <path id="Path_328" data-name="Path 328" d="M1175.626,343.157a3.214,3.214,0,0,1,.754,2.174l-.754-2.174" transform="translate(-1062.21 -310.052)" fill="#d3d985"/>
    <path id="Path_329" data-name="Path 329" d="M1004.311,278.475l.108.262-.565,1.94-.127-.124.584-2.078" transform="translate(-906.894 -251.61)" fill="#d7e4b6"/>
    <path id="Path_330" data-name="Path 330" d="M1147.686,70.7a3.194,3.194,0,0,1-.589-1.614,2.5,2.5,0,0,1,.583,1.62Z" transform="translate(-1036.433 -62.425)" fill="#d3d985"/>
    <path id="Path_331" data-name="Path 331" d="M1004.444,304.42l-.14.015a7.456,7.456,0,0,1,.8-2.031,6.12,6.12,0,0,1-.659,2.016" transform="translate(-907.416 -273.23)" fill="#d7e4b6"/>
    <path id="Path_332" data-name="Path 332" d="M997.746,307.349a4.611,4.611,0,0,1-.436,1.76,4.471,4.471,0,0,1,.436-1.76" transform="translate(-901.095 -277.698)" fill="#add08e"/>
    <path id="Path_333" data-name="Path 333" d="M1153.135,85.826c.26.1.3.3.235.591a.7.7,0,0,1-.229-.6l-.006.006" transform="translate(-1041.889 -77.541)" fill="#d3d985"/>
    <path id="Path_334" data-name="Path 334" d="M1002.619,300.015l.127.124c-.018.115-.091.28-.178.224-.128-.083-.05-.241.052-.348" transform="translate(-905.787 -271.072)" fill="#add08e"/>
    <path id="Path_335" data-name="Path 335" d="M294.03,88.346c-.938-1.962-2.723-1.412-4.279-1.378-1.785.039-3.567.232-5.35.356a6.921,6.921,0,0,1-1.182.054c-1-.1-1.339.5-1.567,1.316a9.928,9.928,0,0,1-.921,2.547,1.564,1.564,0,0,1-1.479.852c-1.015-.017-2.029-.129-3.047-.048a1.15,1.15,0,0,1-.9-.313l1.561-5.109a4.218,4.218,0,0,0,.55-1.848l.861-2.909a9.842,9.842,0,0,0,.956-2.787l3.772-12.051c.327-.737.633-1.484.987-2.208a7.943,7.943,0,0,0,.816-2.992,1,1,0,0,1,.279-.619l4.756-.02a1.4,1.4,0,0,0,.073.977c.374.865.6,1.784,1.046,2.635a27.433,27.433,0,0,1,1.117,2.774,60,60,0,0,1,3.384,11.2,14.629,14.629,0,0,0,.73,1.772c.2.686.542,1.331.813,2,.941,2.32,1.574,4.742,2.356,7.114.178.539.275,1.1.436,1.65.1.339-.081.378-.314.319a18.159,18.159,0,0,0-4.161-.26c-.358-.007-.639-.083-.734-.485-.149-.63-.314-1.257-.467-1.886-.037-.151.113-.179.193-.253a4.648,4.648,0,0,1,1.928-.475c.228,0,.415-.076.458-.327.03-.172-.028-.392-.191-.4-.508-.008-1.039-.264-1.525.124-.3.243-.639.449-.96.672m-4.553-6.2c.4,0,.791-.018,1.185.005.477.028.6-.121.468-.606-.443-1.572-1.131-3.057-1.552-4.64s-.981-3.133-1.519-4.684a7.819,7.819,0,0,0-.64-1.9c-.317.973-.6,1.866-.865,2.768-.816,2.776-1.7,5.531-2.6,8.284-.178.546.029.664.487.675.177.164.395.1.6.1,1.48,0,2.96,0,4.439,0m-10.545.252c-.163.312.107.431.07.541-.323.956.459.461.754.562a.316.316,0,0,0,.357-.265c.02-.154-.151-.208-.274-.272a2.369,2.369,0,0,1-.907-.566m5.327-14.491c-.115,0-.231-.008-.345,0-.17.014-.427-.059-.424.213s.264.294.464.288.385-.135.6-.041a.294.294,0,0,0,.434-.208c.045-.285-.224-.213-.386-.237a3.076,3.076,0,0,0-.344-.017" transform="translate(-248.748 -55.285)" fill="#d3d985"/>
    <path id="Path_336" data-name="Path 336" d="M318.009,121.706l-3.772,12.051-.191,0c1.076-3.886,2.185-7.761,3.629-11.53a2.941,2.941,0,0,1,.334-.518" transform="translate(-283.748 -109.965)" fill="#eaf1df"/>
    <path id="Path_337" data-name="Path 337" d="M469.371,334.4c.321-.223.655-.429.96-.672.486-.388,1.017-.132,1.525-.124.163,0,.221.223.191.4-.044.251-.23.329-.458.326a4.651,4.651,0,0,0-1.928.475c-.239-.031-.283-.2-.289-.4" transform="translate(-424.089 -301.341)" fill="#4db27b"/>
    <path id="Path_338" data-name="Path 338" d="M276.63,323.756l-1.561,5.109a5.814,5.814,0,0,1,.508-2.39c.248-.964.635-1.892.962-2.835Z" transform="translate(-248.509 -292.418)" fill="#eaf1df"/>
    <path id="Path_339" data-name="Path 339" d="M381.472,58.746l-4.756.02a.4.4,0,0,1,.4-.229,24.3,24.3,0,0,1,4.3.094c.026,0,.039.075.058.115" transform="translate(-340.373 -52.843)" fill="#d7e4b6"/>
    <path id="Path_340" data-name="Path 340" d="M359.341,69.823a8.422,8.422,0,0,1-1.059,3.294,15.314,15.314,0,0,1,1.059-3.294" transform="translate(-323.717 -63.087)" fill="#eaf1df"/>
    <path id="Path_341" data-name="Path 341" d="M476.074,378.161h3.72q0,.109,0,.218c-1.24.158-2.476-.119-3.715-.042q0-.088,0-.176" transform="translate(-430.146 -341.679)" fill="#d3d985"/>
    <path id="Path_342" data-name="Path 342" d="M294.909,254.1a17.12,17.12,0,0,1,.969-2.924l.162.052-.947,2.849-.184.022" transform="translate(-266.458 -226.946)" fill="#eaf1df"/>
    <path id="Path_343" data-name="Path 343" d="M462.6,346.9a5.651,5.651,0,0,1-.749-2.278,4.068,4.068,0,0,1,.742,2.284Z" transform="translate(-417.297 -311.373)" fill="#add08e"/>
    <path id="Path_344" data-name="Path 344" d="M306.884,246.594l.191,0a9.84,9.84,0,0,1-.956,2.787,19.6,19.6,0,0,1,.765-2.791" transform="translate(-276.587 -222.804)" fill="#d7e4b6"/>
    <path id="Path_345" data-name="Path 345" d="M283.664,297.253a13.879,13.879,0,0,1-.836,2.828,9.771,9.771,0,0,1,.825-2.837Z" transform="translate(-255.543 -268.568)" fill="#add08e"/>
    <path id="Path_346" data-name="Path 346" d="M431.6,65.951a4.32,4.32,0,0,1-.81-2.433,12.8,12.8,0,0,1,.807,2.435Z" transform="translate(-389.231 -57.39)" fill="#d3d985"/>
    <path id="Path_347" data-name="Path 347" d="M427.395,332.541h-2.621c0-.028,0-.056,0-.084h2.645Z" transform="translate(-383.795 -300.384)" fill="#a8c764"/>
    <path id="Path_348" data-name="Path 348" d="M290.639,307.526l-.091-.115a7.762,7.762,0,0,1,.641-1.733,4.217,4.217,0,0,1-.55,1.848" transform="translate(-262.518 -276.188)" fill="#d7e4b6"/>
    <path id="Path_349" data-name="Path 349" d="M291.7,281.279l.184-.022a5.694,5.694,0,0,1-.395,1.4l-.132.017a6.816,6.816,0,0,1,.342-1.391" transform="translate(-263.251 -254.123)" fill="#d7e4b6"/>
    <path id="Path_350" data-name="Path 350" d="M306.513,239.578a1.6,1.6,0,0,1,.362-.975,1.025,1.025,0,0,1-.362.975" transform="translate(-276.943 -215.584)" fill="#add08e"/>
    <path id="Path_351" data-name="Path 351" d="M439.124,88.737a.518.518,0,0,1,.209.6c-.256-.153-.213-.383-.207-.6Z" transform="translate(-396.757 -80.174)" fill="#d3d985"/>
    <path id="Path_352" data-name="Path 352" d="M291.289,295.754l.132-.017-.119.155-.011-.009a.246.246,0,0,1,0-.129" transform="translate(-263.181 -267.206)" fill="#add08e"/>
    <path id="Path_353" data-name="Path 353" d="M469.543,368.234l.058.026-.051-.033Z" transform="translate(-424.245 -332.703)" fill="#add08e"/>
    <path id="Path_354" data-name="Path 354" d="M28.561,401.522c-1.669.123-3.338.073-5.008.031.142-.166.337-.133.517-.126a40.868,40.868,0,0,1,4.491.095" transform="translate(-21.281 -362.684)" fill="#b9e1f1"/>
    <path id="Path_355" data-name="Path 355" d="M187.207,256.643q-.008.412-.016.823a.654.654,0,0,1,.016-.823" transform="translate(-169.008 -231.884)" fill="#fff"/>
    <path id="Path_356" data-name="Path 356" d="M1454.43,177.365c.3.965.565,1.8.826,2.63.045.145-.015.223-.162.239-.039,0-.078,0-.117.006-1.511.165-1.533.139-1.068-1.293.156-.48.315-.959.521-1.582" transform="translate(-1313.405 -160.254)" fill="#d3d985"/>
    <path id="Path_357" data-name="Path 357" d="M155.292,231.484c.016-.2-.048-.507.276-.405.3.094.786.118.778.528-.006.307-.428.369-.714.4-.413.045-.294-.3-.34-.522" transform="translate(-140.311 -208.768)" fill="#4db27b"/>
    <path id="Path_358" data-name="Path 358" d="M213.171,283.693c-.278.444-.436.721-.618.981-.09.128-.242.272-.4.152-.21-.156.006-.276.1-.38a2.771,2.771,0,0,1,.923-.753" transform="translate(-191.603 -256.324)" fill="#4db27b"/>
    <path id="Path_359" data-name="Path 359" d="M12.378,114.974c.424-.312.711-.453,1.057-.316a.279.279,0,0,1,.041.25c-.286.263-.607.126-1.1.066" transform="translate(-11.184 -103.549)" fill="#4db27b"/>
    <path id="Path_360" data-name="Path 360" d="M44.242,65.854c-.3.2-.606.147-1.1.137a.933.933,0,0,1,1.1-.137" transform="translate(-38.981 -59.392)" fill="#4db27b"/>
    <path id="Path_361" data-name="Path 361" d="M204.511,91.053l.069-.068c0,.015,0,.038-.015.044a.2.2,0,0,1-.062.016Z" transform="translate(-184.774 -82.207)" fill="#4db27b"/>
    <path id="Path_362" data-name="Path 362" d="M728.258,326.7a.418.418,0,0,1-.275-.494.838.838,0,0,1,.618-.669.241.241,0,0,1,.232.377c-.153.281-.148.7-.574.786" transform="translate(-657.738 -294.131)" fill="#4db27b"/>
    <path id="Path_363" data-name="Path 363" d="M625.091,202.285c-.026.166-.109.3-.265.273a.8.8,0,0,1-.582-.544c-.069-.208.181-.23.336-.211a.6.6,0,0,1,.512.482" transform="translate(-564.011 -182.329)" fill="#4db27b"/>
    <path id="Path_364" data-name="Path 364" d="M667.42,369.884c.057-.185.227-.114.349-.147.19-.05.362-.25.578-.083.094.073.05.162-.006.239a.539.539,0,0,1-.676.193c-.1-.036-.232-.048-.245-.2" transform="translate(-603.032 -333.933)" fill="#4db27b"/>
    <path id="Path_365" data-name="Path 365" d="M680.449,226.746a.542.542,0,0,1,.384.456c.04.145-.086.189-.208.2-.239.012-.312-.165-.353-.345a.241.241,0,0,1,.178-.306" transform="translate(-614.636 -204.871)" fill="#4db27b"/>
    <path id="Path_366" data-name="Path 366" d="M604.984,363.88a.307.307,0,0,1-.089.316c-.1.092-.187.237-.343.161a.306.306,0,0,1-.106-.229c-.009-.171.107-.24.266-.244.093,0,.185,0,.278,0Z" transform="translate(-546.133 -328.775)" fill="#4db27b"/>
    <path id="Path_367" data-name="Path 367" d="M610.031,362.282l.174-.178.046.086-.225.085.006.007" transform="translate(-551.174 -327.171)" fill="#4db27b"/>
    <path id="Path_368" data-name="Path 368" d="M874.628,72.342c-.643.876-.656.874-1.525-.036.5-.14.9.494,1.525.036" transform="translate(-788.871 -65.312)" fill="#4db27b"/>
    <path id="Path_369" data-name="Path 369" d="M895.156,284.55c-.129.328-.035.76-.376.991-.14.1-.309.171-.447.045-.167-.152-.013-.322.084-.419.227-.225.49-.414.739-.617" transform="translate(-807.987 -257.099)" fill="#4db27b"/>
    <path id="Path_370" data-name="Path 370" d="M1082.39,153.245a20.885,20.885,0,0,1,.721,2.223c.632,1.812,1.155,3.662,1.749,5.489.358,1.1.781,2.18,1.147,3.278.244.733.171.813-.575.821-1.99.022-3.977-.223-5.97-.088-.538.036-.768-.135-.557-.773q1.377-4.161,2.652-8.356a17.148,17.148,0,0,1,.834-2.593m.027,2.73c-.2.064-.168.2-.2.3-.8,2.5-1.634,4.986-2.388,7.5-.187.624-.006.638.5.629,1.438-.027,2.878-.045,4.316,0,.588.019.6-.137.436-.62-.434-1.252-.814-2.523-1.227-3.782-.445-1.356-.878-2.716-1.437-4.03" transform="translate(-974.749 -138.461)" fill="#76b444"/>
    <path id="Path_371" data-name="Path 371" d="M1027.26,277.91c.149.415.5.511.847.623.129.042.28.1.272.266-.009.2-.184.234-.347.262-.822.144-.961-.043-.773-1.152" transform="translate(-928.09 -251.099)" fill="#4db27b"/>
    <path id="Path_372" data-name="Path 372" d="M1075.321,128c.161,0,.321,0,.482,0,.12,0,.239.04.24.185a.269.269,0,0,1-.31.29,2.742,2.742,0,0,0-.808.017c-.175,0-.411-.034-.422-.26-.011-.251.219-.248.4-.254.138,0,.276,0,.413,0Z" transform="translate(-970.842 -115.634)" fill="#4db27b"/>
    <path id="Path_373" data-name="Path 373" d="M364.823,167.578c-.458-.012-.665-.129-.487-.675.895-2.752,1.783-5.507,2.6-8.284.265-.9.548-1.795.865-2.768a7.823,7.823,0,0,1,.64,1.9c.538,1.551,1.1,3.1,1.519,4.684s1.11,3.068,1.552,4.64c.137.485.009.634-.468.606-.394-.023-.79-.005-1.186-.005-1.67-.49-3.358-.025-5.035-.1m3-9.2c-.117.36-.179.547-.239.735-.767,2.411-1.585,4.805-2.3,7.234-.163.558-.131.682.456.671,1.483-.029,2.968-.017,4.452,0,.42.006.523-.07.373-.508-.544-1.582-1.035-3.183-1.565-4.77-.358-1.074-.748-2.138-1.18-3.366" transform="translate(-329.13 -140.816)" fill="#76b444"/>
    <path id="Path_374" data-name="Path 374" d="M312.383,281.019a2.37,2.37,0,0,0,.907.566c.123.063.294.117.274.272a.316.316,0,0,1-.357.265c-.3-.1-1.076.395-.754-.562.037-.11-.233-.229-.07-.541" transform="translate(-282.199 -253.908)" fill="#4db27b"/>
    <path id="Path_375" data-name="Path 375" d="M369.98,276.178c1.678.071,3.366-.394,5.035.1-1.479,0-2.959,0-4.439,0-.2,0-.42.066-.6-.1" transform="translate(-334.287 -249.416)" fill="#d7e4b6"/>
    <path id="Path_376" data-name="Path 376" d="M360.889,130.788a3.163,3.163,0,0,1,.344.017c.163.025.431-.047.386.237a.294.294,0,0,1-.434.208c-.217-.094-.4.036-.6.041s-.461-.017-.464-.288.254-.2.424-.213c.114-.01.23,0,.345,0" transform="translate(-325.378 -118.168)" fill="#4db27b"/>
    <path id="Path_377" data-name="Path 377" d="M1849.6,70.608c-.944-.89-1.9-1.767-2.827-2.674a1.115,1.115,0,0,1,.142-1.781c.72-.631,1.531-1.129,2.288-1.7a7.071,7.071,0,0,1,1.973-.848.958.958,0,0,1,.964.265,9.13,9.13,0,0,0,7.165,2.151,4.769,4.769,0,0,0,1.772-.592,1.758,1.758,0,0,0,.733-2.4,3.008,3.008,0,0,0-.762-1.071,1.454,1.454,0,0,0-.265-.311c-1.331-.869-2.653-1.754-4.01-2.583a21.473,21.473,0,0,1-2.833-1.679c.416-.154.007-.328.012-.491a28.908,28.908,0,0,1,5.265,2.774c1.01.783,2.278,1.222,2.986,2.441.236.406.042,1.21.851,1.239-.021.03-.035.078-.063.087-.446.146-.217.515-.228.772a2.244,2.244,0,0,1-1.517,2.195c-.214.087-.424.181-.636.271l-.355.015c-.123,0-.254-.018-.3.14h0a1.024,1.024,0,0,0-.543-.058,12.164,12.164,0,0,1-6.83-1.537,1.3,1.3,0,0,1-.483-.385.908.908,0,0,0-1.376-.275c-1.207.675-2.166,1.679-3.3,2.455-.3.209-.039.437.074.594a4.139,4.139,0,0,0,1.927,1.553,7.08,7.08,0,0,1,2.762,1.691,1.79,1.79,0,0,0,1,.457,21.3,21.3,0,0,0,7.826.207c3.43-.712,5.93-2.618,6.71-6.253a7.245,7.245,0,0,0-.35-4.911,13.716,13.716,0,0,0-3.032-3.708,26.093,26.093,0,0,0-5.537-3.467c-1.38-.748-2.8-1.371-3.666-2.844-.672-1.144-.378-3.34,1.256-3.88a7.738,7.738,0,0,1,6.812.646,1.324,1.324,0,0,0,1.653-.072c.684-.481,1.351-1,2.076-1.406a1.277,1.277,0,0,0,.423-2.2,7.078,7.078,0,0,0-4.044-2.4c-1.558-.333-3.065-.974-4.711-.748-.218.03-.478-.081-.63.181l0,.041c-.538-.276-1.05.055-1.534.152a6.859,6.859,0,0,0-3.308,1.284c-.338.069-.676.139-.739.567l.006,0a1.133,1.133,0,0,0-.841.7h0c-.139.048-.269.1-.144.283l.009-.009c-.187-.133-.231.014-.283.145h0c-.3.332-.677.616-.7,1.121l0,0a1.63,1.63,0,0,0-.563,1.12l0,0c-.164-.008-.17.129-.2.231a11.776,11.776,0,0,0-.477,4.614c.034.352-.072.76.266,1.042l-.008-.015a.231.231,0,0,0,.03.118,7.172,7.172,0,0,0,2.615,3.789.589.589,0,0,0,.243.129,3.535,3.535,0,0,1,1.6,1.118c-.767.139.252.331-.014.484-.52.014-.776-.532-1.259-.6h0l-.264-.193a9.349,9.349,0,0,0-1.066-.885,7.5,7.5,0,0,1-2.828-5.685,12.227,12.227,0,0,1,2.193-7.283,2.368,2.368,0,0,1,.864-.8c3.239-1.882,6.637-2.8,10.4-1.863,1.014.253,2,.581,3,.86,1.413.392,2.278,1.551,3.33,2.45a1.826,1.826,0,0,1,.69,1.376,7.164,7.164,0,0,1-.693.654c-.825.732-1.849,1.155-2.7,1.83a2.321,2.321,0,0,1-3.046.207c-1.769-1.2-3.708-1.02-5.636-.481a2.008,2.008,0,0,0-1.162,2.971,4.644,4.644,0,0,0,.829,1.1c1.335,1.308,3.1,1.892,4.672,2.81,2.006,1.174,4.18,2.131,5.647,4.062a9.12,9.12,0,0,1,1.383,2.389,10.239,10.239,0,0,1,.491,4.116A8.2,8.2,0,0,1,1864.849,71a13.46,13.46,0,0,1-9.392,1.619,17.55,17.55,0,0,1-5.635-1.942l-.034-.016a.132.132,0,0,0-.192-.055m5.881-12.579.151.106.035-.054-.185-.052a.879.879,0,0,0-.7-.421l-.063-.031.06.034a.876.876,0,0,0,.7.418m-4.484,12.45c.051.03.1.063.153.089.005,0,.028-.027.042-.042l-.162-.085a1.5,1.5,0,0,0-1.019-.578,2.684,2.684,0,0,0,.986.616m5.047,1.626a12.942,12.942,0,0,0,3.447.095c-1.155.06-2.294-.24-3.447-.095m-7.258-23.3.179,0,.22-1.776a4.025,4.025,0,0,0-.4,1.778m9.68,17.613a1.211,1.211,0,0,0,1.391-.193c-.392.155-.82-.039-1.391.193" transform="translate(-1668.261 -35.872)" fill="#76b444"/>
    <path id="Path_378" data-name="Path 378" d="M2091.394,48.493a1.507,1.507,0,0,1-1.26-.765l-.1-.3c-.056-1.254-.138-2.507-.16-3.762-.022-1.206.485-1.679,1.684-1.774a84.846,84.846,0,0,1,10.179-.2c2.437.1,4.884-.029,7.325-.094a19.643,19.643,0,0,1,3.611.263A.939.939,0,0,1,2113.6,43a1.4,1.4,0,0,0,.149.947,26.8,26.8,0,0,1,.039,2.987,1.23,1.23,0,0,1-1.193,1.494,18.215,18.215,0,0,1-6.785.166c-.449-.085-.782-.147-.762.543.061,2.153.114,4.309.059,6.461-.1,3.909.183,7.8.442,11.693a7.651,7.651,0,0,1-.017,1.875,11.579,11.579,0,0,0-.373,3.436c.06.511-.081,1.154-.766,1.228a17.4,17.4,0,0,1-4.307.116.11.11,0,0,0-.108-.03l-.169-.014a1.255,1.255,0,0,1-1.052-1.114c-.313-1.61-.172-3.242-.34-4.858-.455-4.365-.048-8.727.109-13.09.058-1.624.07-3.249.1-4.874.073-1.073-.143-1.3-1.183-1.267a22.341,22.341,0,0,1-3.2-.1,11.558,11.558,0,0,0-2.848-.11m13.423-.2a3.567,3.567,0,0,0-.064,2.077c.263-.686-.052-1.389.061-2.08.124-.02.28.04.346-.121.01-.025-.063-.117-.106-.124-.185-.03-.219.106-.237.248m-5.587,19.791a37.495,37.495,0,0,0,.11,4.384c.083.527.35.677.847.7a19.47,19.47,0,0,1,3.537-.016.309.309,0,0,0,.416-.258,11.51,11.51,0,0,0,.542-2.293c-.02-2.715,0-5.431-.018-8.147,0-.649.013-1.3-.055-1.949-.19-1.823-.364-3.648-.481-5.477a41.58,41.58,0,0,1,.275-6.466c.069-.749.39-1.067,1.161-.987.559.058,1.133.113,1.672.184,1.708.222,3.395-.063,5.089-.008a.707.707,0,0,0,.748-.76c.024-1.11.044-2.223,0-3.332a1.357,1.357,0,0,0-1.5-1.384,9.472,9.472,0,0,0-2.144.144,7.48,7.48,0,0,0-3.084,0,13.444,13.444,0,0,0-3.285-.037,36.122,36.122,0,0,1-5.761.435c-1.906-.024-3.812-.085-5.719-.121-.7-.013-.857.245-.953.941-.118.856.026,1.7-.025,2.552-.089,1.517.113,1.651,1.666,1.7,1.765.055,3.524-.152,5.292-.042,1.644.1,1.663.047,1.634,1.695-.029,1.694.037,3.386-.053,5.084-.058,1.09.077,2.2.073,3.3-.013,3.327,0,6.654.011,9.981q0,.088,0,.176m5.8-.456v-5.01a35.711,35.711,0,0,0,0,5.01m-6.148-14.981c0,1.187-.129,2.353-.177,3.52l.177,0Zm11.289-10.524c0-.058,0-.117,0-.175h-1.778q0,.093,0,.185a10.562,10.562,0,0,1,1.774-.01m-11.373,20.869a2.545,2.545,0,0,0,0,2.064Zm-2.2-20.688c0,.032,0,.064,0,.1h2.81c0-.032,0-.064,0-.1Zm8.108,16.3h.073V56.84l-.073,0Z" transform="translate(-1888.258 -37.589)" fill="#76b444"/>
    <path id="Path_379" data-name="Path 379" d="M2309.976,74.89a1.69,1.69,0,0,1-1.524-1.533,7.912,7.912,0,0,0-.547-1.5c-.285-1.51-.285-1.51-1.772-1.508-.116,0-.232-.007-.348-.007-2.577,0-5.154.012-7.731,0-.47,0-.681.135-.774.638a12.947,12.947,0,0,1-.9,3.065,1.446,1.446,0,0,1-1.19.922,25.676,25.676,0,0,1-4.1.043c-1.474-.156-1.649-.379-1.486-1.832a54.3,54.3,0,0,1,1.846-7.579c.575-2.211,1.493-4.3,2.176-6.474,1.164-3.7,2.57-7.308,3.767-10.993.451-1.387.885-2.778,1.314-4.171a1.323,1.323,0,0,1,1.413-1.123c1.531-.033,3.061.008,4.591-.035a.891.891,0,0,1,.8.474,5.962,5.962,0,0,1,.655,1.658q1.937,6.072,3.873,12.145c.852,2.677,1.628,5.38,2.567,8.026a77.352,77.352,0,0,1,2.556,7.872c.331,1.387.141,1.749-1.227,1.819-1.321.068-2.644-.1-3.96.087m-16.763-13.344a1.354,1.354,0,0,0,.346-.96,1.379,1.379,0,0,0-.382.93c-.031.077-.065.153-.092.231,0,.008.032.028.05.043l.078-.243m-1.63,5.345c.289-.238.169-.626.333-.91l.422-1.525.788-2.468a6.272,6.272,0,0,0-.946,2.3l-.416,1.555a2.727,2.727,0,0,0-.279.97c-.076.112-.158.222-.043.357l.14-.278m14.329-20.863a.657.657,0,0,0,.264.623.718.718,0,0,0-.258-.628,3.322,3.322,0,0,0-.588-1.6,2.465,2.465,0,0,0,.582,1.61m-7.818,1.812a9.122,9.122,0,0,0,1.118-3.532,17,17,0,0,0-1.112,3.536l-.022.015Zm-6.521,21.122c-.107.282-.22.561-.32.845a19.463,19.463,0,0,0-1.107,4.145c.173.324.484.318.786.325.788.017,1.574.023,2.363.092,1.678.148,2.2-.239,2.758-1.872.256-.747.522-1.491.742-2.248a.6.6,0,0,1,.633-.5c3.009-.226,6.015-.471,9.035-.542a2.309,2.309,0,0,1,2.379,1.431c.013.145,0,.3.138.4.148.7.3,1.405.444,2.109a.6.6,0,0,0,.663.491,23.543,23.543,0,0,1,4.293.268c.249.045.414-.028.3-.267-.195-.406-.134-.85-.3-1.272-.406-1.008-.7-2.062-1.024-3.1-.431-1.393-.828-2.8-1.36-4.158a39.854,39.854,0,0,1-1.6-3.986,62.4,62.4,0,0,0-2.034-7.374c-.963-2.358-1.679-4.812-2.7-7.154-.128-.294-.533-.364-.481-.734a1.854,1.854,0,0,0-.393-1.359.875.875,0,0,1-.123-.993c.008-.121.006-.2-.168-.216-1.342-.132-2.685-.025-4.027-.036a.61.61,0,0,0-.545.244c-.428.647-.284,1.429-.507,2.131a36.326,36.326,0,0,1-1.6,3.735.367.367,0,0,0-.148.431l0-.01c-.255.064-.259.307-.325.488-1.28,3.5-2.332,7.072-3.339,10.657a35.47,35.47,0,0,0-1.1,4.108,5.948,5.948,0,0,0-.552,1.9,8.2,8.2,0,0,0-.781,2.023m17.922,5.116a11.184,11.184,0,0,0,3.912.063,18.106,18.106,0,0,0-3.912-.063m-1.369-3.231a7.436,7.436,0,0,0,.823,2.3,4.578,4.578,0,0,0-.823-2.3m-3.61-1.181c0,.027,0,.054,0,.08h2.8v-.08Zm-13.189-2.155a3.519,3.519,0,0,0-.419,1.48,2.665,2.665,0,0,0,.419-1.48" transform="translate(-2068.679 -38.678)" fill="#76b444"/>
    <path id="Path_380" data-name="Path 380" d="M1558.749,73.525c2.791-.195,5.582.114,8.372,0a21.227,21.227,0,0,1,2.854.159c.507.048.679.442.765.864.069.339.079.691.115,1.037a1.793,1.793,0,0,0-.075.683,17.323,17.323,0,0,1,0,2.775c-.188.9-.48,1.218-1.409,1.113a22.119,22.119,0,0,0-2.352-.035c-2.314-.017-4.629.028-6.943.046q-3.606.028-7.211.05c-1.023-.077-1.219-.295-1.228-1.39q-.027-3.141-.046-6.282c0-.925.018-1.85.011-2.775a47.091,47.091,0,0,0-.081-4.724c.023-1.5.066-2.995.066-4.492q0-4.821-.033-9.643a7.635,7.635,0,0,1,.161-2.466c.053-.164.021-.281.28-.254a43,43,0,0,0,4.706.01,1.138,1.138,0,0,1,1.267,1.337c-.015.206.007.415.012.623-.009,1.761-.077,3.524-.014,5.282.081,2.25.095,4.5.055,6.749-.064,3.62.146,7.229.253,10.842.01.316.068.565.473.492m-5.888-18.659c-.6.029-.588.414-.518.72a11.426,11.426,0,0,1-.009,1.926c.143,2.21.081,4.423.1,6.635.009,1.253.066,2.51.039,3.757-.07,3.256.02,6.511-.039,9.766-.02,1.116,0,1.215,1.112,1.3,2.754.2,5.514.322,8.274.436,1.717.071,3.438-.072,5.157.105a18.512,18.512,0,0,0,2.441.021c.586-.017.952-.28.922-.956-.053-1.172-.125-2.348-.075-3.518.031-.742-.357-.871-.914-.9-1.472-.087-2.946,0-4.418-.01-1.989-.012-3.984.024-5.976.082-1.364.04-1.357.046-1.349-1.305.014-2.6-.157-5.187-.228-7.78-.142-5.182,0-10.371-.281-15.553-.032-.594-.185-.83-.8-.812-1.162.034-2.327.022-3.49,0-.407-.01-.559.115-.5.517a19.582,19.582,0,0,1,.021,4.727c-.032.363-.022.708.531.854m-.733,24.19a1.532,1.532,0,0,0,1.274.669c.655.038,1.3-.146,1.941-.046,1.041.162,2.069-.14,3.108-.052-2.1-.229-4.257.142-6.323-.57m-.07-27a3.365,3.365,0,0,0-.047-1.784c.044.6-.242,1.192.047,1.784" transform="translate(-1401.844 -43.537)" fill="#76b444"/>
    <path id="Path_381" data-name="Path 381" d="M1763.055,78.052c-.981-.291-1.173-.529-1.161-1.665.051-4.969-.264-9.926-.447-14.888a49.12,49.12,0,0,1,.271-6.894c.136-1.316.065-2.635.072-3.954.006-1.2-.018-2.406.021-3.607.029-.891.278-1.1,1.144-1.105,1.322-.007,2.645-.021,3.967,0,1.122.014,1.409.343,1.343,1.433-.012.206.012.414.02.621-.012,1.9-.04,3.8-.033,5.7.011,3.287.05,6.575.065,9.862q.029,6.375.034,12.751c0,1.291-.6,1.923-1.895,1.749-1.148-.154-2.269.06-3.4,0m4.779-23.945c-.107-2.069.089-3.933-.12-5.787a1.812,1.812,0,0,0-1.776-1.7c-.928-.044-1.86,0-2.791.009-.284,0-.369.076-.349.418a26.33,26.33,0,0,1,.068,3.454c-.19,2.665-.262,5.334-.344,8-.051,1.648.025,3.3.065,4.948.077,3.2.035,6.4.069,9.607.012,1.114.084,2.228.171,3.339.016.205-.071.631.289.611,1.261-.071,2.45.463,3.721.371.653-.047.836-.27.832-.875-.044-7.535,0-15.071.164-22.394m.2,9.877-.121-.032v6.454l.121,0Zm-6.159-2.168a4.229,4.229,0,0,0-.1-1.868,4.767,4.767,0,0,0,.1,1.868m-.059-2.7c.11-.033.127-.117.107-.211s-.073-.179-.178-.166c-.028,0-.058.115-.06.177,0,.089.006.187.132.2m.032.574c-.007.018-.022.038-.018.053.016.063.047.066.074.008a.067.067,0,0,0-.012-.055c-.006-.008-.029,0-.045-.006" transform="translate(-1591.49 -41.497)" fill="#76b444"/>
    <path id="Path_382" data-name="Path 382" d="M2195.6,95.941a17.394,17.394,0,0,0,4.307-.116c.685-.074.826-.716.766-1.228a11.587,11.587,0,0,1,.373-3.436,7.651,7.651,0,0,0,.017-1.875c-.259-3.893-.542-7.783-.442-11.693.055-2.152,0-4.308-.059-6.461-.02-.69.313-.629.762-.543a18.215,18.215,0,0,0,6.785-.166,1.23,1.23,0,0,0,1.194-1.494,26.686,26.686,0,0,0-.039-2.987c.5,0,.7.265.7.746-.005,1.42.01,2.84,0,4.26-.007.732-.325.994-1.2,1-2.141.01-4.283,0-6.424,0-.894,0-.895,0-.894.916q.006,10.824,0,21.648a8.426,8.426,0,0,1,.041,2.144c-.136.55-.368.737-.893.731-1.21-.014-2.421,0-3.631,0-1.321,0-1.425-.112-1.362-1.447" transform="translate(-1983.767 -59.58)" fill="#c0e2e8"/>
    <path id="Path_383" data-name="Path 383" d="M1881.916,263.451a17.546,17.546,0,0,0,5.635,1.942,13.459,13.459,0,0,0,9.392-1.619,8.2,8.2,0,0,0,3.928-6.593,10.233,10.233,0,0,0-.491-4.116c.246-.057.312.137.414.29a6.268,6.268,0,0,1,1.084,2.762,10.462,10.462,0,0,1-.358,5.021,8.785,8.785,0,0,1-7.1,5.582,15.229,15.229,0,0,1-12.174-2.8c-.163-.117-.386-.2-.332-.471" transform="translate(-1700.354 -228.643)" fill="#c0e2e8"/>
    <path id="Path_384" data-name="Path 384" d="M1778.373,97.357c1.132.06,2.251-.154,3.4,0,1.3.174,1.9-.457,1.895-1.749q-.005-6.375-.035-12.751c-.015-3.287-.054-6.575-.065-9.862-.006-1.9.021-3.8.033-5.7a.634.634,0,0,1,.65.672c.038.857.115,1.714.116,2.57q.019,13.546.019,27.092c0,.994-.122,1.117-1.126,1.12q-1.746,0-3.491,0c-1.277,0-1.381-.1-1.4-1.4" transform="translate(-1606.808 -60.802)" fill="#c0e2e8"/>
    <path id="Path_385" data-name="Path 385" d="M1565.452,336.819q3.6-.025,7.21-.05c2.315-.018,4.629-.062,6.943-.046a22.088,22.088,0,0,1,2.353.035c.929.105,1.221-.212,1.409-1.112a17.309,17.309,0,0,0,0-2.775,1.793,1.793,0,0,1,.075-.683c.37.023.586.155.615.586q.141,2.087.114,4.177c-.013.9-.258,1.14-1.172,1.142-.954,0-1.908-.006-2.863,0-4.417.041-8.834.18-13.253.127-1.361-.016-1.431-.067-1.428-1.4" transform="translate(-1414.428 -300.14)" fill="#c0e2e8"/>
    <path id="Path_386" data-name="Path 386" d="M2305.481,332.923a25.687,25.687,0,0,0,4.095-.043,1.445,1.445,0,0,0,1.19-.922,12.948,12.948,0,0,0,.9-3.065c.093-.5.3-.64.774-.638,2.577.011,5.154,0,7.731,0,.116,0,.232.007.348.007,1.487,0,1.487,0,1.772,1.508-2.884.007-5.769.032-8.653.006a.834.834,0,0,0-.971.725c-.269,1.008-.608,2-.9,3a1.063,1.063,0,0,1-1.2.9c-1.185-.043-2.373-.009-3.559-.01-1.464,0-1.481-.018-1.534-1.466" transform="translate(-2083.064 -296.586)" fill="#c0e2e8"/>
    <path id="Path_387" data-name="Path 387" d="M2465.525,94.867c1.316-.187,2.64-.019,3.96-.087,1.368-.07,1.558-.432,1.227-1.819a77.347,77.347,0,0,0-2.555-7.872c-.939-2.646-1.715-5.349-2.567-8.026q-1.934-6.074-3.873-12.145c.614.026.705.527.843.959q1.971,6.163,3.928,12.33,2.112,6.63,4.227,13.259c.374,1.17.754,2.338,1.12,3.511.312,1,.058,1.327-.958,1.353-1.393.035-2.786-.078-4.179.063a.791.791,0,0,1-.91-.594c-.085-.311-.176-.621-.264-.932" transform="translate(-2224.229 -58.655)" fill="#c0e2e8"/>
    <path id="Path_388" data-name="Path 388" d="M1955.117,93.077l.1.3a1.743,1.743,0,0,1-.885,1.077c-1.009.659-2,1.345-2.993,2.029a1.28,1.28,0,0,1-1.648.083,7.3,7.3,0,0,0-5.784-1.069,2.651,2.651,0,0,0-2.241,2.9,4.635,4.635,0,0,1-.829-1.1A2.008,2.008,0,0,1,1942,94.329c1.927-.538,3.867-.723,5.636.482a2.321,2.321,0,0,0,3.046-.207c.856-.675,1.88-1.1,2.7-1.83a7.163,7.163,0,0,0,.693-.654c.47.185.629.708,1.041.957" transform="translate(-1753.34 -83.233)" fill="#c0e2e8"/>
    <path id="Path_389" data-name="Path 389" d="M1618.854,91.988c-.405.074-.464-.175-.473-.492-.107-3.613-.317-7.223-.253-10.842.04-2.248.026-4.5-.055-6.749-.063-1.758,0-3.521.014-5.282a.614.614,0,0,1,.694.616,5.9,5.9,0,0,1,.056.831q.012,10.959.018,21.919" transform="translate(-1461.949 -62.001)" fill="#c0e2e8"/>
    <path id="Path_390" data-name="Path 390" d="M2105.625,112.545a11.559,11.559,0,0,1,2.848.11,22.353,22.353,0,0,0,3.2.1c1.04-.029,1.257.194,1.183,1.267l-5.7,0c-1.4,0-1.494-.09-1.533-1.476" transform="translate(-1902.489 -101.641)" fill="#c0e2e8"/>
    <path id="Path_391" data-name="Path 391" d="M1912.822,217.346a21.611,21.611,0,0,0,2.833,1.678c1.356.829,2.678,1.714,4.01,2.583a1.448,1.448,0,0,1,.265.31,52.4,52.4,0,0,1-7.582-4.252c-.321-.24-.711-.461-.788-.927.484.063.739.609,1.259.6Z" transform="translate(-1727.146 -195.829)" fill="#c0e2e8"/>
    <path id="Path_392" data-name="Path 392" d="M1908.826,214.73l.264.193a.222.222,0,0,1-.264-.193" transform="translate(-1724.676 -194.014)" fill="#c0e2e8"/>
    <path id="Path_393" data-name="Path 393" d="M1879.647,359.86a.131.131,0,0,1,.192.055c-.083.049-.141.01-.192-.055" transform="translate(-1698.312 -325.124)" fill="#c0e2e8"/>
    <path id="Path_394" data-name="Path 394" d="M2192.858,376.434l.168.014a.1.1,0,0,1-.168-.014" transform="translate(-1981.306 -340.118)" fill="#c0e2e8"/>
    <path id="Path_395" data-name="Path 395" d="M1866.312,45.53c.151-.262.412-.151.629-.181,1.646-.226,3.153.415,4.711.748a7.078,7.078,0,0,1,4.043,2.4,1.277,1.277,0,0,1-.423,2.2c-.725.411-1.392.925-2.076,1.406a1.324,1.324,0,0,1-1.653.072,7.738,7.738,0,0,0-6.812-.646c-1.635.54-1.928,2.736-1.256,3.88.865,1.473,2.286,2.1,3.666,2.844a26.1,26.1,0,0,1,5.537,3.467,13.72,13.72,0,0,1,3.032,3.708,7.245,7.245,0,0,1,.35,4.911c-.781,3.634-3.281,5.54-6.71,6.253a21.3,21.3,0,0,1-7.826-.207,1.791,1.791,0,0,1-1-.457,7.076,7.076,0,0,0-2.762-1.691,4.136,4.136,0,0,1-1.927-1.553c-.113-.157-.378-.385-.074-.594,1.13-.776,2.089-1.78,3.3-2.455a.908.908,0,0,1,1.376.275,1.3,1.3,0,0,0,.483.385,12.164,12.164,0,0,0,6.83,1.537,1.021,1.021,0,0,1,.543.058c.118.284-.587.445-.171.692.454.27.574-.256.768-.523.059-.081.043-.215.062-.325.212-.09.422-.184.635-.271a2.245,2.245,0,0,0,1.518-2.195c.01-.257-.218-.627.227-.772.027-.009.042-.057.063-.087-.808-.028-.615-.832-.851-1.239-.708-1.219-1.976-1.658-2.986-2.441a28.883,28.883,0,0,0-5.265-2.774v0a3.537,3.537,0,0,0-1.6-1.118.591.591,0,0,1-.243-.129,7.172,7.172,0,0,1-2.615-3.789c.01-.014.031-.035.027-.041a.532.532,0,0,0-.058-.077l.008.015a13.592,13.592,0,0,1-.012-3.584c.151-.766.284-1.535.425-2.3l0,0a1.374,1.374,0,0,0,.563-1.12l0,0a1.5,1.5,0,0,0,.7-1.121h0c.147.054.234-.008.284-.145l-.01.009a.2.2,0,0,0,.144-.283h0c.426-.059.628-.387.841-.7l-.006,0a1.167,1.167,0,0,0,.739-.567,6.86,6.86,0,0,1,3.308-1.284c.484-.1,1-.428,1.534-.151a.685.685,0,0,0,.639.668c.051.008.18-.122.173-.175-.05-.389-.386-.452-.681-.552-.038-.013-.088.011-.132.018m6.89,27.063c.4-.1.346-.521.483-.81a.2.2,0,0,0-.219-.266.81.81,0,0,0-.635.714.338.338,0,0,0,.371.362m-9.8-12.317c.168-.035.289-.122.234-.282a.531.531,0,0,0-.561-.407c-.115.008-.257.059-.2.2a.822.822,0,0,0,.522.484m-1.761,14.781c-.223.171-.633-.1-.74.309-.03.113.008.262.14.271.366.024.46-.3.6-.58m5.333,1.094c.186.03.318.059.452.07a.423.423,0,0,0,.471-.212c.044-.089.064-.171-.028-.243-.219-.172-.334.051-.474.137-.125.077-.34-.071-.42.248m1.573-29.492c-.021-.143-.071-.3-.236-.288-.257.019-.315.259-.36.455-.033.144.107.182.231.178a.343.343,0,0,0,.365-.344" transform="translate(-1676.602 -40.932)" fill="#d3d985"/>
    <path id="Path_396" data-name="Path 396" d="M1875.728,103.6c-.141.768-.273,1.537-.424,2.3a13.591,13.591,0,0,0,.012,3.584c-.338-.282-.232-.69-.266-1.042a11.773,11.773,0,0,1,.477-4.614c.031-.1.037-.239.2-.231" transform="translate(-1694.109 -93.602)" fill="#eaf1df"/>
    <path id="Path_397" data-name="Path 397" d="M1946.445,375.212c1.153-.145,2.292.155,3.447.095a12.935,12.935,0,0,1-3.447-.095" transform="translate(-1758.666 -338.978)" fill="#a8c764"/>
    <path id="Path_398" data-name="Path 398" d="M1984.756,319.3c-.019.11,0,.244-.062.325-.194.267-.315.793-.768.523-.416-.247.289-.409.17-.692h0a.252.252,0,0,0,.3-.141l.355-.015" transform="translate(-1792.411 -288.493)" fill="#4db27b"/>
    <path id="Path_399" data-name="Path 399" d="M1966.462,47.464c.044-.007.095-.031.133-.018.3.1.631.163.681.552.007.053-.122.183-.173.175a.685.685,0,0,1-.639-.668l0-.042" transform="translate(-1776.751 -42.865)" fill="#4db27b"/>
    <path id="Path_400" data-name="Path 400" d="M1871.212,117.366a4.023,4.023,0,0,1,.4-1.778l-.221,1.776-.179,0" transform="translate(-1690.691 -104.437)" fill="#53b164"/>
    <path id="Path_401" data-name="Path 401" d="M1971.554,314.78c.571-.232,1-.038,1.391-.193a1.211,1.211,0,0,1-1.391.193" transform="translate(-1781.352 -284.238)" fill="#53b164"/>
    <path id="Path_402" data-name="Path 402" d="M1889.077,80.433a1.5,1.5,0,0,1-.7,1.122c.023-.505.4-.79.7-1.122" transform="translate(-1706.199 -72.673)" fill="#eaf1df"/>
    <path id="Path_403" data-name="Path 403" d="M1883.131,92.017a1.374,1.374,0,0,1-.563,1.12,1.631,1.631,0,0,1,.563-1.12" transform="translate(-1700.951 -83.14)" fill="#eaf1df"/>
    <path id="Path_404" data-name="Path 404" d="M1884.9,352.967a2.689,2.689,0,0,1-.986-.616,1.5,1.5,0,0,1,1.019.578Z" transform="translate(-1702.168 -318.359)" fill="#d3d985"/>
    <path id="Path_405" data-name="Path 405" d="M1900.814,68.807c-.213.315-.415.643-.842.7a1.133,1.133,0,0,1,.842-.7" transform="translate(-1716.676 -62.169)" fill="#eaf1df"/>
    <path id="Path_406" data-name="Path 406" d="M1909.374,62.975a1.166,1.166,0,0,1-.739.567c.063-.428.4-.5.739-.567" transform="translate(-1724.503 -56.9)" fill="#eaf1df"/>
    <path id="Path_407" data-name="Path 407" d="M1933.352,225.316a.878.878,0,0,1,.7.421h0a.877.877,0,0,1-.7-.418Z" transform="translate(-1746.833 -203.579)" fill="#53b164"/>
    <path id="Path_408" data-name="Path 408" d="M1922.016,218.375c.266-.154-.753-.345.014-.484v0c-.005.163.4.336-.012.491l0-.01" transform="translate(-1736.343 -196.87)" fill="#53b164"/>
    <path id="Path_409" data-name="Path 409" d="M1987.252,319.438a.252.252,0,0,1-.3.141c.05-.159.18-.142.3-.141" transform="translate(-1795.261 -288.62)" fill="#d3d985"/>
    <path id="Path_410" data-name="Path 410" d="M1894.168,358.341l.162.085c-.015.015-.037.045-.042.042-.053-.027-.1-.059-.154-.089l.033-.038" transform="translate(-1711.402 -323.771)" fill="#d3d985"/>
    <path id="Path_411" data-name="Path 411" d="M1940.608,229.677l.185.052-.035.054-.151-.106Z" transform="translate(-1753.392 -207.519)" fill="#53b164"/>
    <path id="Path_412" data-name="Path 412" d="M1898.152,76.093a.2.2,0,0,1-.144.283c-.125-.182.005-.235.144-.283" transform="translate(-1714.856 -68.752)" fill="#eaf1df"/>
    <path id="Path_413" data-name="Path 413" d="M1895.923,78.441c-.049.137-.137.2-.283.145.052-.131.1-.278.283-.145" transform="translate(-1712.761 -70.827)" fill="#eaf1df"/>
    <path id="Path_414" data-name="Path 414" d="M1932.791,225.032l-.06-.034.063.031Z" transform="translate(-1746.275 -203.292)" fill="#53b164"/>
    <path id="Path_415" data-name="Path 415" d="M1878.229,164.469a.561.561,0,0,1,.058.077c0,.007-.017.027-.027.041a.235.235,0,0,1-.03-.119" transform="translate(-1697.031 -148.602)" fill="#eaf1df"/>
    <path id="Path_416" data-name="Path 416" d="M2116.045,48.647a9.474,9.474,0,0,1,2.145-.144,1.356,1.356,0,0,1,1.5,1.384c.047,1.109.028,2.222,0,3.332a.707.707,0,0,1-.749.76c-1.694-.055-3.38.23-5.088.008-.54-.07-1.114-.126-1.672-.184-.77-.08-1.092.238-1.161.987a41.577,41.577,0,0,0-.275,6.466c.116,1.828.291,3.654.481,5.477.068.652.051,1.3.055,1.949.015,2.716,0,5.431.018,8.147a11.509,11.509,0,0,1-.542,2.292.309.309,0,0,1-.416.258,19.487,19.487,0,0,0-3.537.016c-.5-.022-.764-.172-.847-.7a37.651,37.651,0,0,1-.11-4.384c.183.014.366.033.549.04a.479.479,0,0,0,.484-.192.175.175,0,0,0-.042-.167c-.157-.1-.3,0-.453.045a5.092,5.092,0,0,1-.541.1c-.006-3.327-.024-6.654-.011-9.981,0-1.1-.13-2.215-.072-3.3.09-1.7.024-3.39.053-5.084.028-1.648.009-1.592-1.634-1.695-1.769-.11-3.528.1-5.292.042-1.552-.049-1.755-.183-1.666-1.7.05-.853-.093-1.7.025-2.552.1-.7.25-.954.953-.941,1.906.035,3.812.1,5.719.121a36.1,36.1,0,0,0,5.76-.435,13.436,13.436,0,0,1,3.285.037c.055.039.117.12.164.112.969-.167,1.955.107,2.92-.11m-7.986,21.761a8.939,8.939,0,0,0-.7.572c-.132.131-.377.314-.147.509.2.174.376-.054.521-.194a1.615,1.615,0,0,0,.33-.888m-2.732-20.29c.168.288.259.619.68.567.109-.014.253-.148.182-.242a.7.7,0,0,0-.862-.325" transform="translate(-1894.874 -43.819)" fill="#d3d985"/>
    <path id="Path_417" data-name="Path 417" d="M2245.944,264.433a35.674,35.674,0,0,1,0-5.01Z" transform="translate(-2029.176 -234.396)" fill="#53b164"/>
    <path id="Path_418" data-name="Path 418" d="M2181.547,156.075V159.6l-.177,0c.048-1.167.175-2.333.177-3.52" transform="translate(-1970.927 -141.018)" fill="#53b164"/>
    <path id="Path_419" data-name="Path 419" d="M2263.689,48.535c-.966.217-1.951-.056-2.92.11-.047.008-.109-.073-.164-.112a7.482,7.482,0,0,1,3.085,0" transform="translate(-2042.517 -43.706)" fill="#d7e4b6"/>
    <path id="Path_420" data-name="Path 420" d="M2283.584,45.347a10.556,10.556,0,0,0-1.774.01c0-.062,0-.123,0-.185h1.778c0,.058,0,.117,0,.175" transform="translate(-2061.676 -40.814)" fill="#53b164"/>
    <path id="Path_421" data-name="Path 421" d="M2180.226,263.3v2.064a2.545,2.545,0,0,1,0-2.064" transform="translate(-1969.69 -237.903)" fill="#add08e"/>
    <path id="Path_422" data-name="Path 422" d="M2159.46,48.857h2.8c0,.032,0,.064,0,.1h-2.809l0-.1" transform="translate(-1951.126 -44.144)" fill="#add08e"/>
    <path id="Path_423" data-name="Path 423" d="M2242.962,110.9c-.113.691.2,1.393-.061,2.08a3.567,3.567,0,0,1,.064-2.077Z" transform="translate(-2026.406 -100.206)" fill="#53b164"/>
    <path id="Path_424" data-name="Path 424" d="M2186.815,312.514a5.054,5.054,0,0,0,.54-.1c.152-.043.3-.147.453-.045a.175.175,0,0,1,.042.167.478.478,0,0,1-.484.192c-.184-.007-.366-.026-.549-.04,0-.059,0-.118,0-.177" transform="translate(-1975.847 -282.197)" fill="#4db27b"/>
    <path id="Path_425" data-name="Path 425" d="M2243.552,201.3v-1.756l.073,0V201.3h-.073" transform="translate(-2027.11 -180.295)" fill="#53b164"/>
    <path id="Path_426" data-name="Path 426" d="M2244.732,108.578c.018-.142.052-.277.237-.248.043.007.116.1.106.124-.065.161-.221.1-.346.121Z" transform="translate(-2028.174 -97.876)" fill="#53b164"/>
    <path id="Path_427" data-name="Path 427" d="M2310.135,50.034a.875.875,0,0,0,.122.993,1.851,1.851,0,0,1,.393,1.359c-.051.37.354.44.482.734,1.018,2.341,1.735,4.8,2.7,7.154a62.36,62.36,0,0,1,2.034,7.374,39.814,39.814,0,0,0,1.6,3.986c.532,1.362.929,2.765,1.36,4.158.323,1.041.619,2.094,1.024,3.1.17.422.109.866.3,1.272.115.239-.05.312-.3.267a23.548,23.548,0,0,0-4.293-.268.6.6,0,0,1-.663-.491c-.145-.7-.3-1.406-.444-2.109a10.3,10.3,0,0,1,2.136-.521c.221-.005.511-.052.472-.378s-.317-.3-.573-.362c-.948-.238-1.478.5-2.173.861a2.309,2.309,0,0,0-2.379-1.431c-3.019.071-6.026.316-9.035.542a.6.6,0,0,0-.633.495c-.22.757-.486,1.5-.742,2.248-.559,1.633-1.079,2.02-2.758,1.872-.789-.07-1.575-.075-2.363-.092-.3-.006-.614,0-.787-.325.644-1.581,1.024-3.245,1.533-4.869a7.374,7.374,0,0,0,.677-2.145,5.958,5.958,0,0,1,.552-1.9,15.607,15.607,0,0,0,1.144-3.722,3.111,3.111,0,0,0,.211-.434q.953-3.054,1.894-6.111c.51-1.66,1.01-3.324,1.514-4.986l0,.01c.167-.1.113-.282.148-.431a36.314,36.314,0,0,0,1.6-3.735c.224-.7.079-1.484.507-2.131l4.74.008m-.354,20.948c.139-.005.278-.02.417-.015,1.621.053,1.448-.065,1.049-1.316-.063-.2-.13-.4-.206-.59-.957-2.422-1.561-4.959-2.425-7.41-.287-.813-.493-1.656-.8-2.551a17.194,17.194,0,0,0-.917,2.759q-1.262,4.161-2.618,8.293c-.2.614.01.742.546.7.158.2.381.131.582.132q2.188,0,4.378,0m-9.967,1.266c.224.038.519.148.595-.139s-.285-.3-.451-.429-.473-.062-.55-.385c-.035-.144-.248-.068-.23.046.044.271.007.541.027.795.018.229.394.088.609.113m4.79-15.1c.214-.059.677.184.677-.235,0-.3-.462-.1-.706-.176a.31.31,0,0,0-.136,0c-.207.034-.553-.1-.56.211s.334.2.544.219a1.31,1.31,0,0,0,.18-.015" transform="translate(-2074.153 -45.2)" fill="#d3d985"/>
    <path id="Path_428" data-name="Path 428" d="M2339.3,115.183c-.5,1.662-1,3.326-1.515,4.986q-.939,3.058-1.894,6.111a3.117,3.117,0,0,1-.211.433q-.022-.193-.044-.385c1.008-3.585,2.059-7.157,3.34-10.657.066-.181.069-.425.325-.488" transform="translate(-2110.308 -104.071)" fill="#eaf1df"/>
    <path id="Path_429" data-name="Path 429" d="M2489.417,322.843c.694-.357,1.225-1.1,2.173-.861.256.064.535.04.573.362s-.251.373-.472.378a10.3,10.3,0,0,0-2.136.521c-.143-.1-.124-.256-.138-.4" transform="translate(-2249.255 -290.878)" fill="#4db27b"/>
    <path id="Path_430" data-name="Path 430" d="M2297.151,314.039c-.509,1.624-.889,3.288-1.533,4.869a19.508,19.508,0,0,1,1.108-4.145c.1-.284.213-.564.32-.845l.1.121" transform="translate(-2074.153 -283.633)" fill="#eaf1df"/>
    <path id="Path_431" data-name="Path 431" d="M2401.692,47.463l-4.74-.008a.61.61,0,0,1,.545-.244c1.342.011,2.685-.1,4.027.036.174.017.176.095.168.216" transform="translate(-2165.711 -42.629)" fill="#d7e4b6"/>
    <path id="Path_432" data-name="Path 432" d="M2496.192,366.165a18.065,18.065,0,0,1,3.912.064,11.2,11.2,0,0,1-3.912-.064" transform="translate(-2255.377 -330.764)" fill="#d3d985"/>
    <path id="Path_433" data-name="Path 433" d="M2378.018,61.9a17,17,0,0,1,1.113-3.536,9.126,9.126,0,0,1-1.118,3.532Z" transform="translate(-2148.598 -52.733)" fill="#eaf1df"/>
    <path id="Path_434" data-name="Path 434" d="M2325.334,230.712c.014.128.029.256.044.385a15.617,15.617,0,0,1-1.144,3.723,35.473,35.473,0,0,1,1.1-4.108" transform="translate(-2100.008 -208.455)" fill="#d7e4b6"/>
    <path id="Path_435" data-name="Path 435" d="M2482,333.453a4.578,4.578,0,0,1,.823,2.3,7.429,7.429,0,0,1-.823-2.3" transform="translate(-2242.556 -301.284)" fill="#add08e"/>
    <path id="Path_436" data-name="Path 436" d="M2316.728,243.922a6.269,6.269,0,0,1,.945-2.3q-.394,1.234-.789,2.468l-.157-.169" transform="translate(-2093.227 -218.313)" fill="#eaf1df"/>
    <path id="Path_437" data-name="Path 437" d="M2453.6,61.122a2.467,2.467,0,0,1-.582-1.61,3.332,3.332,0,0,1,.588,1.6Z" transform="translate(-2216.368 -53.771)" fill="#d3d985"/>
    <path id="Path_438" data-name="Path 438" d="M2310.518,295.087l-.1-.121a8.186,8.186,0,0,1,.782-2.024,7.355,7.355,0,0,1-.677,2.145" transform="translate(-2087.521 -264.682)" fill="#d7e4b6"/>
    <path id="Path_439" data-name="Path 439" d="M2444.579,321.209h2.8v.08h-2.8v-.08" transform="translate(-2208.742 -290.221)" fill="#a8c764"/>
    <path id="Path_440" data-name="Path 440" d="M2312.831,265.452l.157.169-.422,1.525-.152-.139.416-1.555" transform="translate(-2089.329 -239.843)" fill="#d7e4b6"/>
    <path id="Path_441" data-name="Path 441" d="M2303.942,298.874a2.668,2.668,0,0,1-.419,1.48,3.53,3.53,0,0,1,.419-1.48" transform="translate(-2081.295 -270.041)" fill="#add08e"/>
    <path id="Path_442" data-name="Path 442" d="M2309.8,281.575l.151.139c-.164.284-.045.672-.333.91l-.1-.08a2.738,2.738,0,0,1,.279-.97" transform="translate(-2086.715 -254.411)" fill="#add08e"/>
    <path id="Path_443" data-name="Path 443" d="M2327.049,228.019a1.384,1.384,0,0,1,.383-.929,1.356,1.356,0,0,1-.346.96Z" transform="translate(-2102.552 -205.182)" fill="#d7e4b6"/>
    <path id="Path_444" data-name="Path 444" d="M2459.022,76.146a.719.719,0,0,1,.258.628.657.657,0,0,1-.264-.623Z" transform="translate(-2221.784 -68.8)" fill="#d3d985"/>
    <path id="Path_445" data-name="Path 445" d="M2373.472,110.824c-.035.148.019.328-.148.431a.368.368,0,0,1,.148-.431" transform="translate(-2144.339 -100.132)" fill="#eaf1df"/>
    <path id="Path_446" data-name="Path 446" d="M2308.681,291.706l-.14.278c-.115-.135-.032-.246.043-.357l.1.079" transform="translate(-2085.778 -263.493)" fill="#add08e"/>
    <path id="Path_447" data-name="Path 447" d="M2326.23,236.757l-.078.243c-.017-.015-.052-.035-.05-.043.027-.078.061-.154.092-.231l.036.031" transform="translate(-2101.697 -213.888)" fill="#d7e4b6"/>
    <path id="Path_448" data-name="Path 448" d="M2377.86,94.975l-.017.02.022-.015Z" transform="translate(-2148.446 -85.813)" fill="#eaf1df"/>
    <path id="Path_449" data-name="Path 449" d="M1560.085,60.317c-.553-.145-.562-.49-.531-.853a19.588,19.588,0,0,0-.021-4.727c-.062-.4.089-.526.5-.517,1.163.027,2.327.039,3.49.005.615-.018.768.217.8.812.281,5.182.138,10.37.281,15.553.071,2.593.242,5.184.228,7.78-.008,1.351-.014,1.345,1.35,1.305,1.992-.058,3.987-.094,5.976-.082,1.472.009,2.947-.077,4.418.01.558.033.945.162.914.9-.05,1.17.021,2.346.075,3.518.031.676-.336.939-.922.956a18.508,18.508,0,0,1-2.441-.021c-1.719-.177-3.44-.034-5.157-.105-2.759-.114-5.52-.236-8.274-.436-1.11-.081-1.131-.18-1.111-1.3.059-3.255-.032-6.51.039-9.766.027-1.247-.03-2.5-.039-3.757-.016-2.212.047-4.424-.1-6.635a11.452,11.452,0,0,0,.009-1.926c-.07-.306-.082-.691.518-.72m1.174-1.23a.471.471,0,0,0,.5.3c.413.007.386-.391.514-.627.058-.107-.109-.2-.225-.144-.275.132-.62.158-.789.466m1.193,3.44c-.118-.159-.04-.5-.381-.532a.2.2,0,0,0-.238.253c.07.259.177.534.481.586.132.023.124-.155.138-.307" transform="translate(-1409.068 -48.989)" fill="#d3d985"/>
    <path id="Path_450" data-name="Path 450" d="M1557.791,368.17c2.066.713,4.219.341,6.323.57-1.039-.088-2.067.214-3.108.052-.645-.1-1.286.084-1.941.046a1.531,1.531,0,0,1-1.274-.669" transform="translate(-1407.506 -332.652)" fill="#d3d985"/>
    <path id="Path_451" data-name="Path 451" d="M1555.839,71.551c-.289-.592,0-1.187-.047-1.784a3.366,3.366,0,0,1,.047,1.784" transform="translate(-1405.625 -63.036)" fill="#a8c764"/>
    <path id="Path_452" data-name="Path 452" d="M1778.007,60.4c-.161,7.323-.209,14.859-.164,22.394,0,.605-.179.828-.832.875-1.271.092-2.46-.442-3.721-.371-.36.02-.273-.405-.289-.611-.087-1.111-.16-2.225-.171-3.339-.034-3.2.008-6.406-.069-9.607-.04-1.65-.115-3.3-.065-4.948.082-2.668.154-5.337.344-8a26.436,26.436,0,0,0-.068-3.454c-.021-.341.065-.416.348-.418.93-.006,1.863-.053,2.791-.009a1.812,1.812,0,0,1,1.776,1.7c.209,1.854.013,3.718.12,5.787m-4.772,15,.729.067c-.122-.192-.335-.257-.311-.49.012-.119.057-.312-.164-.294-.155.012-.227.142-.237.3-.009.138-.015.277-.023.415l-.118.126.078.055.047-.175m1.958-11.266a.311.311,0,0,0-.3-.373.354.354,0,0,0-.394.371c-.007.249.156.358.4.357s.308-.147.3-.355m2.01,2.118a1.174,1.174,0,0,0-.943-.007c-.072.031-.037.163.048.224.32.231.593.03.873-.1.01,0,.008-.038.022-.119m-.194-3.845c.189.012.257-.092.262-.249.007-.258-.167-.366-.382-.4a.215.215,0,0,0-.268.231.536.536,0,0,0,.389.416m.623,12.756c-.015-.221-.181-.162-.3-.168-.186-.008-.384,0-.408.242a.239.239,0,0,0,.253.259.5.5,0,0,0,.458-.333" transform="translate(-1601.663 -47.788)" fill="#d3d985"/>
    <path id="Path_453" data-name="Path 453" d="M1828.823,232.788v6.424l-.121,0v-6.454l.121.032" transform="translate(-1652.282 -210.301)" fill="#53b164"/>
    <path id="Path_454" data-name="Path 454" d="M1764.536,193.128a4.766,4.766,0,0,1-.1-1.868,4.235,4.235,0,0,1,.1,1.868" transform="translate(-1594.154 -172.809)" fill="#a8c764"/>
    <path id="Path_455" data-name="Path 455" d="M1764.263,179.127c-.126-.012-.135-.11-.131-.2,0-.063.032-.174.06-.177.1-.013.158.072.178.166s0,.178-.107.211" transform="translate(-1593.94 -161.504)" fill="#a8c764"/>
    <path id="Path_456" data-name="Path 456" d="M1765.662,188.624c.016,0,.039,0,.045.006a.068.068,0,0,1,.012.055c-.028.058-.058.055-.075-.008,0-.015.012-.035.018-.053" transform="translate(-1595.306 -170.427)" fill="#a8c764"/>
    <path id="Path_457" data-name="Path 457" d="M2034.388,318.064a.338.338,0,0,1-.371-.362.809.809,0,0,1,.635-.714.2.2,0,0,1,.219.266c-.137.288-.085.711-.483.81" transform="translate(-1837.788 -286.402)" fill="#4db27b"/>
    <path id="Path_458" data-name="Path 458" d="M1931.261,194.064a.822.822,0,0,1-.522-.484c-.062-.145.08-.2.2-.2a.531.531,0,0,1,.561.407c.055.159-.066.247-.234.281" transform="translate(-1744.462 -174.719)" fill="#4db27b"/>
    <path id="Path_459" data-name="Path 459" d="M1911.027,353.739c-.139.283-.234.6-.6.58-.132-.009-.17-.158-.14-.271.107-.4.516-.138.74-.309" transform="translate(-1725.988 -319.613)" fill="#4db27b"/>
    <path id="Path_460" data-name="Path 460" d="M1973.317,360.87c.08-.32.295-.171.42-.248s.255-.309.474-.137c.092.072.073.154.028.243a.423.423,0,0,1-.471.212c-.134-.011-.265-.04-.452-.07" transform="translate(-1782.945 -325.65)" fill="#4db27b"/>
    <path id="Path_461" data-name="Path 461" d="M1983.993,56.669a.342.342,0,0,1-.365.344c-.125,0-.264-.033-.231-.178.045-.2.1-.436.36-.455.165-.012.215.146.236.288" transform="translate(-1792.049 -50.941)" fill="#4db27b"/>
    <path id="Path_462" data-name="Path 462" d="M2200.938,275.62a1.615,1.615,0,0,1-.33.888c-.145.14-.317.368-.521.194-.229-.2.015-.378.147-.509a8.945,8.945,0,0,1,.7-.572" transform="translate(-1987.753 -249.03)" fill="#4db27b"/>
    <path id="Path_463" data-name="Path 463" d="M2181.472,64.856a.7.7,0,0,1,.862.325c.07.094-.073.228-.183.242-.421.053-.512-.279-.679-.567" transform="translate(-1971.019 -58.557)" fill="#4db27b"/>
    <path id="Path_464" data-name="Path 464" d="M2385.2,155.835c-.536.042-.747-.087-.546-.7q1.351-4.133,2.617-8.293a17.266,17.266,0,0,1,.917-2.759c.312.895.518,1.737.8,2.551.864,2.451,1.468,4.988,2.425,7.41.077.194.143.392.206.59.4,1.251.572,1.369-1.049,1.316-.138,0-.278.01-.417.015a1.127,1.127,0,0,0-.777-.243c-1.395.021-2.788.072-4.181.112m2.849-8.956c-.838,2.67-1.672,5.342-2.521,8.009-.089.277-.048.4.246.4h5.286c-1.016-2.84-1.744-5.69-3.011-8.405" transform="translate(-2154.529 -130.183)" fill="#76b444"/>
    <path id="Path_465" data-name="Path 465" d="M2391.005,264.842c1.394-.04,2.787-.091,4.181-.112a1.128,1.128,0,0,1,.778.243c-1.459,0-2.918,0-4.378,0-.2,0-.423.067-.581-.132" transform="translate(-2160.338 -239.191)" fill="#d7e4b6"/>
    <path id="Path_466" data-name="Path 466" d="M2333.135,270.706c-.216-.025-.591.117-.609-.113-.02-.254.017-.523-.027-.795-.018-.114.2-.19.23-.046.078.323.376.25.55.385s.527.141.451.429-.372.177-.595.139" transform="translate(-2107.474 -243.657)" fill="#4db27b"/>
    <path id="Path_467" data-name="Path 467" d="M2381.975,119.891a1.32,1.32,0,0,1-.181.015c-.209-.018-.55.1-.543-.219s.353-.177.56-.211a.314.314,0,0,1,.137,0c.244.074.7-.123.7.176,0,.419-.463.176-.677.235" transform="translate(-2151.524 -107.945)" fill="#4db27b"/>
    <path id="Path_468" data-name="Path 468" d="M1577.545,100.147c.169-.308.514-.334.789-.466.115-.055.282.037.224.144-.128.236-.1.634-.514.627a.471.471,0,0,1-.5-.3" transform="translate(-1425.355 -90.049)" fill="#4db27b"/>
    <path id="Path_469" data-name="Path 469" d="M1584.052,135.333c-.014.151-.006.329-.138.307-.3-.052-.411-.327-.481-.586a.2.2,0,0,1,.238-.253c.341.037.262.373.381.532" transform="translate(-1430.667 -121.795)" fill="#4db27b"/>
    <path id="Path_470" data-name="Path 470" d="M1792.2,165.924c.005.208-.064.354-.3.355s-.4-.108-.4-.357a.354.354,0,0,1,.394-.371.311.311,0,0,1,.3.372" transform="translate(-1618.665 -149.579)" fill="#4db27b"/>
    <path id="Path_471" data-name="Path 471" d="M1778.372,279.467c.008-.138.014-.277.023-.415.01-.154.083-.284.237-.3.221-.017.176.176.164.294-.024.233.19.3.311.49l-.729-.067Z" transform="translate(-1606.807 -251.863)" fill="#4db27b"/>
    <path id="Path_472" data-name="Path 472" d="M1810.379,190.421c-.014.081-.011.114-.022.119-.28.129-.553.33-.873.1-.085-.061-.12-.193-.048-.224a1.174,1.174,0,0,1,.944.006" transform="translate(-1634.838 -171.958)" fill="#4db27b"/>
    <path id="Path_473" data-name="Path 473" d="M1813.916,145.432a.535.535,0,0,1-.388-.416.215.215,0,0,1,.268-.231c.216.032.39.14.382.4,0,.157-.072.26-.262.249" transform="translate(-1638.57 -130.814)" fill="#4db27b"/>
    <path id="Path_474" data-name="Path 474" d="M1817.357,282.149a.5.5,0,0,1-.458.333.239.239,0,0,1-.253-.259c.024-.241.223-.25.408-.242.122.005.287-.053.3.168" transform="translate(-1641.387 -254.775)" fill="#4db27b"/>
    <path id="Path_475" data-name="Path 475" d="M1777.275,286.145l-.047.175-.078-.055.118-.126Z" transform="translate(-1605.703 -258.534)" fill="#4db27b"/>
    <path id="Path_476" data-name="Path 476" d="M1297.747,359.693a18.98,18.98,0,0,1,.626,2.039h-.118a18.459,18.459,0,0,0-2.806-1.156c-2.527-1-5.072-1.949-7.6-2.933a1.107,1.107,0,0,0-.993.064,17.224,17.224,0,0,1-17.968-1.445,6.988,6.988,0,0,1-2.208-2.059c.2-.056.326.105.471.189a18.328,18.328,0,0,0,17.433.89,1.272,1.272,0,0,1,1.064-.028q5.593,2.173,11.2,4.322a1.232,1.232,0,0,0,.908.119" transform="translate(-1144.475 -320.021)" fill="#b9e1f1"/>
    <path id="Path_477" data-name="Path 477" d="M1198.308,44.467q0-.718,0-1.436l4.944,2.936c0,.585-.011,1.171.01,1.755a1.2,1.2,0,0,0,1.2,1.188c1.228.013,2.457-.006,3.685-.012.3.016.582.533.893.023.941,0,1.883,0,2.824-.007a1.219,1.219,0,0,0,1.3-1.323c0-2.353-.035-4.707.016-7.059a1.4,1.4,0,0,0-1.549-1.617c-2.353-.027-4.706-.016-7.059,0a1.315,1.315,0,0,0-1.293,1,6.227,6.227,0,0,0-.031,2.329c-1.473-.825-2.935-1.668-4.348-2.592a2.279,2.279,0,0,1,.269-.9c.657.239.824.166,1.1-.514a15.376,15.376,0,0,1,4.261-5.995q.016,1.822.033,3.644a1.321,1.321,0,0,0,1.484,1.482q2.146,0,4.293,0a1.317,1.317,0,0,0,1.513-1.5c0-1.333-.064-2.67.017-4s-.774-1.8-1.84-1.8c-.744,0-1.488-.018-2.233-.028.1-.06.2-.13.3-.18a15.651,15.651,0,0,1,10.14-1.213,15.88,15.88,0,0,1,12.462,15.16,15.667,15.667,0,0,1-1.868,7.683,1.37,1.37,0,0,0-.065,1.275c.886,2.241,1.741,4.494,2.6,6.745.111.289.267.579-.024.869s-.564.156-.865.04c-2.174-.842-4.36-1.657-6.522-2.528a1.8,1.8,0,0,0-1.646.1,15.391,15.391,0,0,1-15.179-.217l3.234-.028a1.353,1.353,0,0,0,1.487-1.49c0-1.353,0-2.706,0-4.06,0-1.259-.633-1.762-1.885-1.69a20.031,20.031,0,0,1-3.639-.04,1.487,1.487,0,0,0-1.766,1.547c-.007,1.314,0,2.628,0,3.942a15.442,15.442,0,0,1-5.069-8.64c-.219-1.034-.186-2.156-1.189-2.857m27.919,3.987c1.066,0,1.06,0,.764-.931-.692-2.186-1.357-4.38-2.07-6.558-.457-1.4-.089-1.095-1.586-1.145a.532.532,0,0,0-.623.458c-.2.736-.446,1.461-.674,2.191-.568,1.814-1.14,3.627-1.7,5.442-.051.166-.228.449.051.5a4.69,4.69,0,0,0,1.345.022c.337-.04.317-.423.373-.668.1-.427.318-.55.739-.525a17.214,17.214,0,0,0,1.824,0c.356-.017.565.093.614.45.084.614.392.919.944.766m-11.641-4.309c0,1.256.013,2.512-.007,3.767-.006.407.125.556.539.548,1.177-.02,2.355,0,3.532-.008,1.211-.008,1.075.187,1.107-1.093.011-.448-.153-.579-.582-.564-.784.027-1.571-.021-2.354.018-.46.023-.6-.106-.6-.579.027-1.785.026-3.571.007-5.357-.012-1.159.259-1.023-1.061-1.061-.484-.014-.6.17-.593.62.025,1.236.008,2.472.009,3.708m6.5,12.667a2.929,2.929,0,0,0,3.03-3.031,3.027,3.027,0,0,0-2.875-3.1,2.964,2.964,0,0,0-3.025,3,2.926,2.926,0,0,0,2.87,3.13m-7.569-22.93c0,.823.013,1.646-.005,2.468-.009.4.125.568.542.556.842-.022,1.686-.035,2.527,0,.483.02.486-.239.482-.585s.026-.635-.467-.6c-.468.032-.941-.015-1.41.014-.389.024-.508-.117-.5-.5.019-1.273-.009-2.547.016-3.82.009-.432-.158-.533-.549-.521-.37.011-.655.023-.64.52.025.822.007,1.645.006,2.468m1.413,19.859c0,.842,0,1.683,0,2.525,0,.273.06.4.383.446.918.125,1.836.037,2.752.078.487.022.395-.315.4-.595s.068-.606-.412-.58-.979-.017-1.467.012c-.4.023-.5-.131-.494-.508.02-1.213,0-2.427.011-3.64,0-.411-.006-.709-.575-.708-.537,0-.616.239-.6.681.021.763.006,1.526.006,2.29m3.65-19.785c0-.861-.013-1.722.005-2.582.009-.422-.221-.479-.558-.475s-.629-.013-.626.466q.019,2.524,0,5.048c0,.514.312.48.661.495s.539-.078.526-.486c-.025-.821-.007-1.643-.008-2.465" transform="translate(-1082.704 -25.574)" fill="#d3d985"/>
    <path id="Path_478" data-name="Path 478" d="M1189.5,32.209a15.391,15.391,0,0,0,15.179.217,1.8,1.8,0,0,1,1.646-.1c2.163.871,4.348,1.686,6.522,2.528.3.117.581.244.865-.04s.134-.58.024-.869c-.863-2.25-1.717-4.5-2.6-6.745a1.37,1.37,0,0,1,.065-1.275,15.666,15.666,0,0,0,1.868-7.683,15.879,15.879,0,0,0-12.461-15.16,15.651,15.651,0,0,0-10.14,1.213,3.476,3.476,0,0,0-.3.18,7.126,7.126,0,0,0-1.811,1.067l-.484.33-.974.8a15.38,15.38,0,0,0-4.261,6c-.278.68-.445.753-1.1.514-.323-.341-.627-.7-.975-1.016a.866.866,0,0,1-.2-1.151A18.458,18.458,0,0,1,1191,1.1a17.317,17.317,0,0,1,6.989-1.075c.01.408.018.818.5.985a24.623,24.623,0,0,0,3.067.055A2.2,2.2,0,0,0,1202.7.968l.23-.086q10.865,3.881,12.723,15.267c.038.232.082.462.123.693a.543.543,0,0,0-.018.116,19.043,19.043,0,0,1-1.735,9.471.663.663,0,0,0-.026.564c.368.9.726,1.809,1.088,2.714.321.874.633,1.751.966,2.621q1.2,3.144,2.429,6.281c.151.388.24.75-.134,1.063a1.232,1.232,0,0,1-.908-.119q-5.6-2.161-11.2-4.322a1.271,1.271,0,0,0-1.064.028,18.328,18.328,0,0,1-17.433-.89c-.145-.083-.267-.245-.471-.189-.58-.461-1.174-.905-1.738-1.384a18.261,18.261,0,0,1-6.737-14c-.009-.34-.03-.689.369-.841s.621.11.864.346c.209.2.431.4.646.593,1,.7.97,1.822,1.189,2.857a15.442,15.442,0,0,0,5.069,8.64c.334.267.583.655,1.051.728h0c.358.571.989.763,1.52,1.093" transform="translate(-1065.069 0)" fill="#76b444"/>
    <path id="Path_479" data-name="Path 479" d="M1143.457,122.892c-.311.51-.6-.007-.893-.023a8.426,8.426,0,0,0-1.563-.943,25,25,0,0,0-2.367-1.416l-.961-.571L1132.729,117l-6.337-3.8c-.817-.49-.83-.54-.347-1.36.219-.371.436-.742.657-1.112.393-.658.506-.688,1.151-.306q2.473,1.468,4.945,2.937c.166.1.346.175.52.261,1.413.924,2.875,1.768,4.348,2.592a3.3,3.3,0,0,0,.945.574q1.434.865,2.868,1.73c.595.358.708.331,1.064-.266.623-1.043,1.245-2.087,1.859-3.136.245-.419.516-.617.993-.293.388.263.814.47,1.223.7.819.575.819.574.335,1.439-.113.2-.217.408-.326.612l-2.592,4.36-.577.959" transform="translate(-1017.12 -99.545)" fill="#76b444"/>
    <path id="Path_480" data-name="Path 480" d="M1257.544,142.814c.108-.2.213-.41.326-.612.484-.865.484-.865-.335-1.44.006-.333,0-.666.023-1,.038-.471-.177-.607-.624-.6q-3.4.022-6.808,0c-.426,0-.6.14-.591.577.019.762,0,1.526-.007,2.288a3.3,3.3,0,0,1-.945-.574,6.233,6.233,0,0,1,.031-2.328,1.316,1.316,0,0,1,1.293-1c2.353-.011,4.706-.023,7.059,0a1.4,1.4,0,0,1,1.549,1.617c-.05,2.352-.012,4.706-.016,7.059a1.219,1.219,0,0,1-1.3,1.323c-.941.01-1.882.005-2.824.007l.577-.959c.685,0,1.37-.009,2.054.01.406.011.556-.153.551-.555-.017-1.271-.01-2.543-.013-3.814" transform="translate(-1128.037 -124.786)" fill="#aeb18f"/>
    <path id="Path_481" data-name="Path 481" d="M1264.217,264.182c-.468-.073-.718-.461-1.051-.728,0-1.314,0-2.628,0-3.942a1.487,1.487,0,0,1,1.766-1.547,20.045,20.045,0,0,0,3.639.041c1.252-.072,1.884.431,1.885,1.69,0,1.353,0,2.707,0,4.06a1.353,1.353,0,0,1-1.487,1.49l-3.234.028c-.531-.33-1.162-.521-1.52-1.092a.972.972,0,0,0,.278.09q2.265.012,4.531.009c.353,0,.392-.25.391-.53,0-1.393-.013-2.786,0-4.179,0-.432-.155-.591-.588-.586q-2.03.027-4.061,0c-.489-.005-.663.213-.656.678.014.922-.009,1.844.009,2.766a5.842,5.842,0,0,0,.092,1.751" transform="translate(-1141.303 -233.065)" fill="#c0bfc0"/>
    <path id="Path_482" data-name="Path 482" d="M1264.3,47.438a7.122,7.122,0,0,1,1.811-1.067c.744.01,1.488.032,2.232.028,1.066-.005,1.922.466,1.84,1.8s-.013,2.665-.017,4a1.317,1.317,0,0,1-1.513,1.5q-2.147,0-4.293,0a1.321,1.321,0,0,1-1.484-1.482q-.018-1.822-.033-3.644l.973-.8c.136.24.023.489.026.733a37.394,37.394,0,0,0,.054,3.76c.037.333.175.486.523.484,1.374-.01,2.747-.008,4.121,0,.412,0,.6-.162.591-.6-.019-1.354-.024-2.708,0-4.062.01-.5-.177-.647-.654-.64-1.393.019-2.786,0-4.18,0" transform="translate(-1141.016 -41.897)" fill="#c0bfc0"/>
    <path id="Path_483" data-name="Path 483" d="M1366.947,151.948c0-1.236.016-2.473-.009-3.708-.009-.45.109-.634.593-.62,1.32.038,1.048-.1,1.061,1.061.019,1.785.02,3.571-.007,5.357-.007.473.137.6.6.579.783-.038,1.57.01,2.354-.018.429-.015.593.116.582.564-.032,1.28.1,1.085-1.107,1.093-1.177.008-2.355-.012-3.532.008-.415.007-.546-.142-.539-.548.02-1.256.007-2.512.007-3.767" transform="translate(-1235.065 -133.377)" fill="#76b444"/>
    <path id="Path_484" data-name="Path 484" d="M1407.579,266.388a2.926,2.926,0,0,1-2.87-3.13,2.965,2.965,0,0,1,3.025-3,3.027,3.027,0,0,1,2.875,3.1,2.929,2.929,0,0,1-3.03,3.031m.065-1.18a1.742,1.742,0,0,0,1.785-1.834,1.859,1.859,0,0,0-1.793-1.932,1.826,1.826,0,0,0-1.744,1.9,1.734,1.734,0,0,0,1.752,1.866" transform="translate(-1269.192 -235.151)" fill="#c0bfc0"/>
    <path id="Path_485" data-name="Path 485" d="M1355.933,58.121c0-.823.018-1.646-.006-2.468-.015-.5.27-.508.64-.52.391-.012.558.089.549.521-.026,1.273,0,2.547-.017,3.82-.006.384.114.525.5.5.469-.029.942.018,1.41-.014.493-.033.463.27.468.6s0,.6-.482.585c-.841-.035-1.685-.023-2.527,0-.417.011-.551-.159-.542-.557.018-.822.005-1.645.006-2.468" transform="translate(-1225.116 -49.813)" fill="#c0bfc0"/>
    <path id="Path_486" data-name="Path 486" d="M1370.578,264.142c0-.763.015-1.527-.006-2.289-.012-.441.067-.679.6-.681.569,0,.579.3.575.708-.011,1.213.009,2.427-.011,3.64-.006.377.1.531.494.508.488-.028.979.015,1.467-.012s.42.288.412.58.085.617-.4.595c-.917-.041-1.835.047-2.752-.078-.323-.044-.385-.173-.383-.446.007-.841,0-1.683,0-2.525" transform="translate(-1238.348 -235.976)" fill="#c0bfc0"/>
    <path id="Path_487" data-name="Path 487" d="M1397.434,58.24c0,.822-.017,1.644.008,2.465.012.408-.164.5-.526.486s-.666.02-.661-.495c.016-1.682.013-3.365,0-5.048,0-.479.295-.461.626-.466s.567.053.558.475c-.018.86-.005,1.722,0,2.582" transform="translate(-1261.554 -49.859)" fill="#c0bfc0"/>
    <path id="Path_488" data-name="Path 488" d="M1249.585,211.382l.961.571c0,.275.01.55-.014.823-.04.464.159.634.617.611.587-.03,1.176-.014,1.765-.018a8.437,8.437,0,0,1,1.563.943c-1.228.006-2.457.025-3.685.012a1.2,1.2,0,0,1-1.2-1.188c-.02-.584-.008-1.17-.01-1.755" transform="translate(-1129.032 -190.989)" fill="#aeb18f"/>
    <path id="Path_489" data-name="Path 489" d="M1273.42,57.426c1.393,0,2.787.02,4.18,0,.477-.007.663.143.654.64-.026,1.354-.021,2.708,0,4.062.006.439-.179.6-.591.6-1.374,0-2.747-.007-4.121,0-.348,0-.486-.151-.523-.484a37.431,37.431,0,0,1-.054-3.76c0-.244.11-.493-.026-.733l.484-.331" transform="translate(-1150.132 -51.886)" fill="#d3d985"/>
    <path id="Path_490" data-name="Path 490" d="M1259.328,151.868c0-.763.025-1.526.007-2.288-.011-.437.164-.579.59-.577q3.4.02,6.808,0c.447,0,.662.133.624.6-.027.331-.016.664-.023,1-.409-.231-.835-.438-1.223-.7-.477-.323-.748-.126-.993.293-.613,1.049-1.236,2.093-1.858,3.136-.357.6-.469.624-1.064.267q-1.435-.863-2.868-1.73" transform="translate(-1137.837 -134.627)" fill="#d3d985"/>
    <path id="Path_491" data-name="Path 491" d="M1318.139,186.865c0,1.271,0,2.543.013,3.814.005.4-.145.567-.551.556-.684-.019-1.369-.008-2.054-.01l2.592-4.36" transform="translate(-1188.632 -168.838)" fill="#d3d985"/>
    <path id="Path_492" data-name="Path 492" d="M1261.757,218.72c-.588,0-1.178-.012-1.765.018-.458.023-.657-.147-.617-.611.024-.273.01-.549.014-.823a25,25,0,0,1,2.368,1.416" transform="translate(-1137.876 -196.34)" fill="#d3d985"/>
    <path id="Path_493" data-name="Path 493" d="M1273.027,273.876a5.846,5.846,0,0,1-.092-1.751c-.018-.922.005-1.844-.009-2.766-.007-.465.167-.683.656-.678q2.03.023,4.061,0c.433-.006.592.154.587.586-.016,1.393-.007,2.786,0,4.179,0,.28-.039.53-.391.53q-2.266,0-4.531-.009a.978.978,0,0,1-.278-.09Z" transform="translate(-1150.113 -242.758)" fill="#d3d985"/>
    <path id="Path_494" data-name="Path 494" d="M1418.728,276.283a1.734,1.734,0,0,1-1.752-1.866,1.826,1.826,0,0,1,1.744-1.9,1.859,1.859,0,0,1,1.793,1.932,1.742,1.742,0,0,1-1.785,1.834" transform="translate(-1280.276 -246.226)" fill="#d3d985"/>
  </g>
</svg>
